<?xml version="1.0" standalone="no"?>
<!DOCTYPE svg PUBLIC "-//W3C//DTD SVG 20010904//EN"
 "http://www.w3.org/TR/2001/REC-SVG-20010904/DTD/svg10.dtd">
<svg version="1.0" xmlns="http://www.w3.org/2000/svg"
 width="1280.000000pt" height="1028.000000pt" viewBox="0 0 1280.000000 1028.000000"
 preserveAspectRatio="xMidYMid meet">
<metadata>
Created by potrace 1.15, written by Peter Selinger 2001-2017
</metadata>
<g transform="translate(0.000000,1028.000000) scale(0.100000,-0.100000)"
fill="#000000" stroke="none">
<path d="M5420 10269 c-33 -14 -68 -47 -87 -83 -20 -38 -19 -155 1 -221 20
-65 21 -62 -15 -69 -17 -3 -49 -24 -71 -45 -26 -27 -51 -41 -78 -46 -129 -22
-167 -188 -68 -300 57 -64 68 -69 130 -50 28 8 66 24 85 35 19 11 43 20 54 20
11 0 34 13 50 29 23 23 29 38 29 71 0 56 -25 113 -47 108 -14 -3 -17 -12 -14
-43 7 -79 6 -88 -12 -99 -15 -9 -24 -5 -56 29 -34 37 -38 47 -45 115 -6 69 -5
76 17 97 13 13 39 26 58 29 33 4 35 2 74 -61 58 -96 69 -109 88 -102 27 10 20
37 -24 102 -104 154 -140 281 -108 373 22 63 101 83 143 37 28 -30 33 -52 42
-200 7 -114 16 -146 54 -180 20 -18 21 -26 15 -80 -5 -52 -3 -65 15 -87 30
-39 79 -51 179 -45 93 5 117 11 124 31 13 32 -8 37 -95 25 -132 -19 -178 1
-164 74 8 41 29 51 131 63 71 8 89 18 75 44 -8 16 -18 18 -67 13 -32 -3 -78
-12 -102 -19 -25 -7 -47 -11 -51 -9 -4 2 -18 21 -32 42 -23 34 -26 51 -31 160
-6 133 -18 173 -65 216 -33 32 -91 43 -132 26z m-200 -551 c0 -53 19 -106 51
-143 34 -38 31 -43 -46 -64 -36 -10 -41 -9 -68 17 -55 52 -69 104 -46 169 11
33 39 51 82 52 24 1 27 -3 27 -31z"/>
<path d="M5959 9424 c-14 -18 -12 -20 93 -106 82 -67 94 -131 58 -311 -11 -55
-20 -121 -20 -148 0 -41 -3 -49 -18 -49 -28 0 -32 9 -16 45 19 46 18 61 -6 85
-28 28 -92 26 -157 -5 -37 -17 -53 -30 -53 -43 0 -30 21 -32 80 -6 84 36 109
28 79 -27 -8 -16 -17 -18 -44 -13 -28 5 -36 3 -42 -11 -4 -12 0 -23 13 -32 30
-22 121 -45 176 -45 36 1 83 -12 177 -49 224 -87 381 -198 480 -339 l44 -62
-42 7 c-34 6 -42 4 -48 -11 -8 -23 30 -54 67 -54 62 0 227 -220 270 -359 25
-78 25 -84 3 -73 -40 21 -55 -10 -27 -53 12 -18 17 -62 21 -178 7 -173 3 -198
-28 -212 -17 -7 -26 -25 -36 -65 -7 -30 -26 -91 -42 -135 l-29 -80 -43 1 c-38
0 -218 18 -401 40 -32 4 -58 10 -58 15 0 4 24 34 53 66 29 32 61 69 70 83 21
30 22 99 3 144 -16 38 -77 91 -122 106 -25 9 -30 15 -27 34 6 29 -19 41 -50
25 -27 -14 -121 -109 -130 -129 -5 -12 -10 -10 -26 8 -37 42 -44 94 -26 180
26 121 30 256 12 329 -45 174 -176 312 -353 372 l-70 24 4 51 c3 41 0 56 -16
76 -19 23 -22 24 -37 9 -13 -12 -13 -21 -4 -47 15 -43 -1 -80 -53 -128 -53
-48 -106 -70 -259 -110 -133 -34 -177 -52 -209 -84 -19 -19 -20 -19 -30 1 -15
27 -15 121 0 151 6 13 28 37 48 55 31 27 34 34 23 47 -8 9 -19 16 -26 16 -27
0 -74 -52 -96 -104 -16 -40 -29 -56 -47 -61 -16 -4 -29 -19 -39 -45 -9 -22
-19 -40 -23 -40 -3 0 -16 9 -28 20 -26 24 -28 61 -8 119 13 36 13 42 -1 56
-22 23 -37 5 -57 -63 -14 -51 -20 -59 -51 -71 -46 -16 -100 -81 -114 -137 -6
-24 -14 -44 -17 -44 -12 0 -71 34 -91 53 -30 27 -29 65 3 112 23 35 24 39 9
54 -11 12 -20 13 -32 5 -27 -17 -54 -79 -55 -126 0 -26 -11 -64 -29 -99 -46
-90 -72 -216 -71 -346 0 -109 0 -113 -21 -113 -20 -1 -59 -13 -108 -34 -13 -5
-30 13 -73 76 -47 70 -58 96 -72 165 -16 81 -16 82 6 117 12 20 26 36 31 36 5
0 9 11 9 25 0 37 -32 32 -68 -9 -17 -19 -35 -43 -41 -53 -29 -48 -36 79 -10
169 5 18 9 44 9 58 0 18 15 38 52 71 46 41 51 49 39 63 -18 22 -22 21 -72 -19
-60 -47 -80 -47 -72 3 15 96 63 179 169 292 35 37 64 72 64 77 0 6 -7 17 -16
24 -14 11 -26 3 -93 -68 -118 -126 -180 -243 -181 -343 0 -38 4 -49 31 -71
l31 -25 -16 -54 c-21 -69 -21 -188 -1 -217 8 -11 26 -24 39 -27 19 -5 27 -15
32 -44 3 -20 10 -53 15 -73 9 -36 75 -146 111 -185 19 -21 19 -23 2 -73 -30
-91 -7 -162 76 -231 44 -37 50 -46 50 -81 0 -32 -4 -41 -23 -48 -12 -5 -43
-25 -69 -44 l-46 -35 -58 30 c-52 26 -66 29 -115 23 l-56 -6 -51 63 c-96 116
-131 206 -171 436 -31 178 -69 234 -198 294 -35 17 -63 31 -63 33 0 2 7 30 15
62 20 78 19 119 -6 171 -22 46 -64 78 -112 89 -43 9 -33 33 60 142 96 112 83
179 -47 243 -41 20 -81 42 -89 49 -17 15 -10 95 19 225 11 49 20 106 20 127 1
129 -125 182 -212 89 -51 -55 -72 -130 -73 -259 0 -57 -3 -103 -6 -103 -3 0
-16 24 -29 53 -62 140 -73 159 -109 182 -79 53 -172 40 -208 -28 -22 -42 -22
-175 1 -236 21 -56 20 -71 -1 -71 -10 0 -32 -9 -50 -20 -31 -18 -41 -40 -58
-122 -3 -16 -16 -32 -32 -40 -48 -23 -68 -72 -68 -165 0 -74 3 -85 30 -124 34
-47 85 -78 145 -86 21 -3 46 -13 54 -22 14 -15 13 -21 -15 -53 -39 -49 -59
-98 -59 -150 0 -45 29 -115 59 -142 18 -16 17 -19 -24 -81 -138 -205 -125
-443 37 -673 l45 -63 -21 -41 c-21 -43 -27 -126 -14 -183 6 -29 4 -32 -49 -60
-66 -34 -100 -81 -109 -150 -5 -34 -16 -61 -35 -83 -110 -126 -103 -267 15
-342 30 -19 55 -37 55 -40 1 -3 -16 -24 -37 -48 l-37 -42 -65 32 c-36 18 -80
38 -99 45 -30 11 -33 15 -28 41 4 20 -1 44 -16 73 -27 54 -100 95 -188 105
-83 9 -86 16 -66 137 28 168 22 225 -29 272 -21 20 -38 25 -77 25 -44 0 -54
-4 -87 -37 -41 -42 -79 -132 -81 -191 -1 -20 -4 -50 -8 -66 l-6 -28 -32 44
c-18 25 -46 51 -62 58 -87 36 -177 -49 -188 -179 -6 -69 8 -124 46 -181 l29
-43 -37 -25 c-20 -13 -45 -32 -56 -41 -11 -10 -50 -26 -86 -35 -36 -10 -88
-30 -115 -46 -69 -40 -171 -135 -211 -198 -19 -29 -46 -57 -61 -63 -14 -5 -93
-23 -174 -39 -82 -17 -189 -45 -238 -63 -242 -91 -482 -314 -573 -532 -121
-289 -39 -668 190 -887 86 -81 194 -131 343 -159 36 -7 77 -18 91 -25 24 -12
25 -17 21 -67 -6 -73 17 -121 77 -159 25 -15 63 -33 83 -39 l38 -10 0 -84 c0
-90 -6 -99 -45 -69 -14 11 -20 27 -20 57 0 35 -3 42 -19 42 -13 0 -22 -9 -26
-26 -4 -14 -21 -45 -38 -68 -54 -74 -62 -168 -25 -286 43 -136 155 -222 303
-233 75 -5 125 7 184 45 29 19 46 23 70 19 44 -9 86 -29 86 -41 0 -11 -48
-190 -110 -413 -55 -201 -74 -336 -67 -497 16 -388 190 -596 540 -645 59 -8
87 -16 87 -25 0 -7 -30 -48 -68 -92 -37 -43 -114 -136 -172 -208 -57 -71 -167
-206 -245 -300 -164 -198 -197 -243 -226 -316 -26 -68 -36 -182 -20 -246 7
-26 28 -72 47 -101 63 -96 0 -90 924 -91 1042 -2 3580 -18 4755 -30 506 -6
1285 -13 1730 -15 446 -3 1177 -9 1625 -12 756 -6 818 -5 858 11 23 9 53 30
66 46 40 47 71 153 71 245 0 75 -3 87 -42 165 -23 46 -94 165 -159 264 -65 99
-223 351 -352 560 -129 209 -266 431 -304 493 -39 62 -68 116 -64 119 3 3 63
-10 133 -30 407 -116 807 -140 1068 -66 409 117 517 189 571 381 16 55 19 58
58 68 59 15 85 27 125 59 31 24 47 29 116 33 60 4 93 11 130 30 111 57 181
178 154 267 -10 33 -9 43 1 57 22 26 17 106 -8 141 -12 17 -22 33 -22 35 0 2
26 23 59 46 96 71 157 161 168 251 11 94 -48 160 -130 147 -83 -14 -133 -52
-184 -143 -19 -35 -38 -65 -43 -68 -4 -3 3 29 16 70 28 87 32 206 10 258 -15
38 -66 84 -101 93 -37 9 -91 -14 -125 -52 l-30 -35 0 -134 c0 -75 -4 -136 -10
-140 -5 -3 -29 4 -52 17 -33 17 -61 22 -118 22 -90 1 -135 -19 -155 -69 -13
-30 -12 -41 10 -118 34 -115 29 -125 -43 -85 -45 26 -66 32 -116 31 -52 0 -78
-7 -171 -50 -284 -130 -487 -159 -679 -96 l-50 16 23 18 c13 11 31 19 42 19
10 0 51 12 91 27 95 35 174 110 206 196 12 32 22 66 22 77 0 27 -30 40 -92 41
-45 0 -50 2 -34 12 46 28 114 100 128 134 35 87 39 107 23 122 -11 11 -17 12
-28 3 -7 -6 -45 -14 -83 -18 -73 -7 -134 11 -134 39 0 6 25 46 56 87 31 41 67
96 80 123 23 44 27 47 65 47 48 0 90 20 118 56 17 22 21 41 21 106 l0 80 50
55 c28 30 68 85 89 121 22 37 53 80 70 96 28 27 32 28 61 16 27 -11 33 -10 52
6 25 22 99 174 124 256 16 54 19 57 52 60 49 4 69 36 100 154 20 80 25 124 26
229 1 120 3 133 25 163 60 85 -9 275 -153 417 -122 121 -265 187 -513 236 -62
12 -113 25 -113 28 0 3 21 21 45 39 53 40 102 111 111 161 5 26 2 44 -14 72
-17 29 -20 47 -16 85 4 37 1 56 -14 79 l-18 30 42 27 c63 39 122 96 171 162
38 52 43 64 43 113 0 47 -4 59 -29 84 -16 16 -40 29 -53 29 -42 0 -121 -28
-180 -65 -32 -19 -58 -33 -58 -32 0 1 9 26 20 55 29 76 28 188 -3 233 -44 66
-142 72 -199 12 -29 -31 -39 -64 -62 -197 -9 -49 -19 -93 -24 -98 -5 -5 -35 4
-67 18 -74 34 -182 44 -237 21 -56 -24 -72 -55 -64 -132 3 -36 9 -94 12 -129
l6 -65 -38 20 c-45 22 -114 25 -152 5 -15 -8 -43 -30 -61 -50 -19 -20 -38 -36
-43 -36 -16 0 -77 76 -78 96 -1 60 -45 114 -95 114 -24 0 -18 19 25 75 52 68
90 161 90 223 0 62 -29 107 -89 139 l-44 23 -41 -20 c-58 -29 -80 -48 -114
-103 l-30 -48 -12 58 c-16 87 -33 118 -75 138 -45 21 -107 16 -137 -12 -60
-54 -82 -179 -55 -308 9 -38 14 -72 12 -76 -2 -3 -27 1 -54 10 -39 12 -51 21
-51 36 0 12 -10 41 -22 65 l-23 45 40 40 c64 63 89 125 89 220 0 137 -49 203
-218 299 -47 26 -86 51 -86 55 0 3 11 22 24 42 27 40 99 81 226 128 191 72
270 182 270 377 0 146 -56 273 -173 391 -82 83 -161 121 -367 173 -190 47
-232 61 -237 76 -2 6 12 30 32 55 46 57 69 128 70 209 0 85 -37 159 -116 235
-106 101 -233 140 -434 132 -139 -5 -221 -29 -345 -101 -91 -52 -130 -66 -185
-66 -50 0 -65 14 -158 156 -71 108 -124 159 -215 205 -116 59 -281 66 -378 16
-105 -53 -186 -167 -207 -293 l-11 -62 -100 -4 c-80 -3 -110 -9 -146 -27 -76
-39 -111 -71 -136 -125 -39 -84 -28 -221 21 -276 25 -27 73 -36 93 -17 19 19
3 44 -31 49 -49 7 -73 135 -39 211 36 81 142 137 259 137 64 0 109 -17 143
-55 29 -31 100 -69 149 -80 46 -10 113 11 150 47 25 24 31 38 31 72 -1 47 -12
65 -60 95 -41 25 -93 27 -144 6 -40 -17 -55 -40 -37 -58 8 -8 23 -7 59 6 39
14 54 15 80 6 60 -21 66 -76 12 -104 -64 -33 -143 -10 -212 62 l-38 39 10 57
c19 121 93 227 186 268 123 55 287 23 412 -79 38 -30 196 -251 187 -260 -2 -2
-17 4 -34 12 -37 20 -67 20 -74 3 -16 -43 58 -67 193 -64 l109 4 143 72 c201
101 291 117 473 86 153 -27 254 -94 310 -206 24 -46 27 -62 23 -119 -5 -70
-22 -112 -71 -174 l-31 -38 -71 4 c-79 5 -114 22 -145 73 -29 46 -26 89 7 115
32 25 81 24 97 -3 17 -27 -12 -71 -49 -75 -50 -6 -55 -35 -9 -52 47 -18 110
36 121 105 5 30 1 39 -30 70 -41 41 -71 44 -134 15 -88 -40 -106 -126 -43
-214 41 -57 93 -82 185 -91 49 -5 77 -13 92 -27 14 -13 95 -39 228 -74 114
-29 229 -65 256 -79 190 -95 311 -330 270 -526 -24 -113 -92 -185 -224 -235
-160 -60 -239 -111 -273 -177 -22 -41 -37 -23 -30 33 5 37 3 50 -10 61 -14 11
-18 10 -30 -6 -16 -22 -19 -108 -4 -135 5 -10 67 -49 137 -88 136 -75 182
-114 207 -174 22 -51 20 -143 -3 -195 -27 -58 -98 -133 -127 -133 -12 0 -35
-5 -51 -11 -15 -6 -46 -14 -68 -18 -31 -5 -41 -12 -43 -28 -4 -30 24 -36 84
-18 92 28 119 18 134 -50 8 -34 7 -36 -33 -57 -82 -41 -129 -80 -148 -122 -23
-52 -24 -113 -1 -147 9 -14 32 -48 50 -74 39 -59 43 -105 10 -105 -13 0 -42
-9 -66 -20 -49 -22 -72 -64 -72 -132 l0 -43 -137 3 c-158 3 -283 16 -365 39
l-56 15 -17 66 c-9 36 -31 98 -49 137 l-33 72 88 82 c102 94 163 176 213 282
54 113 70 188 62 292 l-7 87 90 95 c68 71 92 103 97 130 9 48 -1 103 -23 128
-22 24 -74 47 -108 47 -22 0 -25 3 -20 21 27 83 45 217 45 330 0 151 -10 213
-50 298 -17 35 -30 65 -30 66 0 2 19 -1 43 -6 124 -28 255 -126 277 -208 29
-109 -36 -212 -105 -167 -36 24 -33 60 6 76 22 9 29 18 27 34 -5 36 -44 32
-85 -9 -32 -32 -35 -40 -30 -73 9 -56 54 -92 115 -92 56 0 84 21 113 84 43 94
11 218 -74 292 -73 63 -192 114 -293 125 -168 19 -289 22 -399 9 -121 -13
-159 -9 -337 35 -225 56 -318 138 -318 279 0 39 28 104 54 125 9 8 16 22 16
33 0 15 -6 19 -26 16 -40 -5 -83 -72 -97 -151 l-11 -65 -40 -7 c-56 -8 -145
-46 -189 -79 -80 -61 -120 -149 -171 -381 -22 -99 -45 -173 -63 -207 -45 -82
-138 -138 -232 -138 -26 0 -30 4 -33 33 -2 20 4 42 16 59 17 24 18 33 7 90 -7
35 -26 93 -43 130 -27 60 -29 69 -16 87 25 36 68 63 108 68 35 5 43 2 75 -30
28 -28 35 -43 35 -73 0 -37 -31 -104 -47 -104 -16 0 -31 16 -34 35 -3 12 -12
20 -24 20 -30 0 -33 -51 -4 -81 33 -35 83 -33 120 7 98 105 28 279 -114 279
-55 0 -90 -16 -131 -59 l-29 -30 -47 62 c-26 34 -64 78 -84 96 -24 24 -36 44
-36 62 0 33 -94 164 -163 227 -96 87 -245 170 -427 238 -58 21 -108 43 -113
49 -8 11 -5 40 25 211 19 106 20 129 9 177 -16 72 -54 123 -134 180 -36 26
-68 47 -70 47 -3 0 -11 -7 -18 -16z m-2679 -324 c38 -20 41 -63 15 -197 -25
-126 -33 -221 -21 -242 10 -16 -36 -31 -92 -31 -43 0 -49 3 -58 28 -7 19 -7
34 2 51 8 15 12 61 12 115 -2 125 21 211 67 254 37 35 46 37 75 22z m-372
-160 c22 -13 40 -37 53 -68 11 -26 42 -92 69 -147 28 -55 50 -106 50 -113 0
-7 -9 -30 -20 -52 -43 -85 -16 -155 70 -181 34 -10 52 -10 98 2 50 12 57 17
57 39 0 19 -5 24 -20 22 -76 -12 -125 -13 -143 -3 -33 17 -38 55 -13 94 20 32
26 35 89 41 37 4 81 13 97 20 26 11 36 10 75 -7 78 -34 100 -54 100 -91 0 -27
-13 -48 -65 -106 -49 -54 -67 -83 -71 -112 -4 -21 -11 -41 -16 -44 -5 -4 -54
-12 -109 -20 -97 -14 -202 -48 -329 -108 -41 -19 -57 -22 -67 -14 -11 9 -8 17
16 42 16 17 33 43 36 59 4 15 13 27 21 27 28 0 65 24 70 47 12 45 -16 111 -61
149 -46 37 -72 43 -82 17 -4 -11 6 -27 34 -52 33 -30 63 -76 63 -96 0 -12 -55
-3 -89 14 -37 19 -101 83 -101 101 0 4 -11 21 -24 37 -23 28 -24 32 -13 83 9
41 18 58 37 67 33 17 77 16 83 0 10 -26 153 -128 171 -121 31 12 16 40 -49 86
-73 53 -118 115 -141 197 -19 62 -15 170 5 195 19 22 79 20 119 -4z m-229
-576 c28 -48 77 -94 130 -124 12 -6 12 -13 1 -40 -19 -45 -51 -63 -98 -55 -61
10 -101 40 -124 93 -19 42 -20 53 -10 101 21 99 51 106 101 25z m5184 21 c46
-97 140 -154 344 -207 127 -33 158 -35 493 -27 103 3 151 0 167 -9 12 -7 38
-45 57 -85 44 -89 60 -192 53 -332 -10 -180 -32 -251 -132 -433 -50 -92 -49
-140 7 -218 l43 -59 0 -115 c0 -103 -3 -123 -29 -189 -16 -40 -50 -106 -77
-145 -47 -71 -212 -240 -228 -234 -5 2 -36 38 -71 81 -34 43 -95 108 -135 144
l-74 66 72 44 c40 25 83 55 97 69 l26 24 17 -21 c41 -47 65 43 30 115 -22 47
-57 61 -109 44 -28 -9 -39 -19 -39 -33 0 -18 6 -20 48 -17 26 2 47 -1 47 -6 0
-20 -110 -109 -176 -144 l-69 -36 -64 39 c-35 21 -106 55 -157 75 -52 20 -94
39 -94 43 0 3 16 30 35 58 39 57 38 75 -5 93 -24 10 -38 9 -75 -3 -25 -9 -45
-14 -45 -11 0 3 7 21 15 41 18 42 9 58 -34 68 -35 8 -65 -4 -123 -48 l-47 -36
-3 47 c-3 44 -5 47 -34 50 -41 4 -88 -40 -104 -96 -8 -33 -16 -42 -32 -42 -28
0 -398 96 -449 117 -21 8 -39 20 -39 27 0 6 15 54 34 106 28 78 38 96 57 100
30 7 37 48 38 208 l1 112 50 0 c70 0 148 32 199 82 71 70 98 138 141 348 48
232 110 317 263 361 86 24 91 24 110 -16z m-2007 -95 c146 -71 241 -194 264
-341 10 -65 1 -179 -20 -274 -23 -100 7 -214 67 -251 15 -10 35 -27 44 -37 26
-31 49 -15 49 33 0 80 68 112 148 71 61 -31 87 -66 87 -116 0 -39 -6 -49 -56
-102 -31 -32 -63 -73 -72 -90 -18 -33 -40 -43 -102 -43 -68 0 -276 -38 -354
-65 -125 -42 -231 -114 -277 -187 -33 -51 -21 -68 47 -68 27 0 49 -4 49 -10 0
-5 -6 -10 -14 -10 -7 0 -48 -22 -89 -50 l-76 -49 -21 29 c-12 17 -41 42 -66
56 -24 14 -44 32 -44 38 0 7 -14 40 -30 73 -21 41 -44 70 -72 89 -39 27 -47
29 -143 29 l-101 0 -49 42 c-53 47 -97 63 -183 66 -55 2 -57 3 -60 31 -4 32
24 68 72 93 41 21 137 13 174 -14 58 -43 164 -26 145 23 -5 13 -15 14 -49 9
-24 -3 -44 -3 -44 2 0 4 12 41 26 81 23 62 25 78 16 108 -8 28 -7 41 9 74 22
46 25 127 5 173 -7 18 -27 45 -44 61 -29 27 -35 28 -89 22 -32 -3 -81 -18
-109 -31 -28 -14 -62 -25 -75 -25 -60 0 -125 -72 -171 -190 -28 -70 -31 -215
-6 -272 16 -35 15 -36 -4 -41 -14 -4 -19 -12 -16 -29 2 -19 9 -23 38 -24 57
-1 59 -2 66 -41 6 -32 4 -39 -17 -52 -13 -9 -41 -31 -62 -50 l-38 -34 -42 41
c-23 22 -66 52 -94 67 -64 32 -72 63 -22 92 41 24 87 95 94 148 5 32 0 63 -21
126 -24 75 -27 100 -28 229 -1 113 3 161 18 215 18 66 51 145 61 145 3 0 35
-16 72 -35 91 -49 103 -46 123 35 20 83 33 106 71 126 31 15 32 15 63 -14 17
-16 46 -37 64 -47 40 -20 55 -11 73 43 18 57 20 57 38 4 35 -103 72 -127 110
-73 28 38 84 63 216 95 124 30 213 69 265 115 44 39 73 36 186 -19z m-2442
-114 c48 -20 66 -51 66 -115 0 -76 -18 -131 -48 -142 -13 -5 -61 -9 -108 -9
-148 0 -290 -44 -434 -134 l-75 -47 -36 41 c-42 46 -54 92 -38 141 14 41 75
119 93 119 7 0 51 17 97 39 120 55 199 78 324 96 60 9 112 18 114 21 6 6 8 5
45 -10z m143 -344 c58 -30 108 -76 126 -115 8 -17 25 -86 36 -152 39 -222 86
-337 182 -450 l51 -59 -33 -26 c-43 -32 -110 -98 -129 -128 l-15 -23 -55 20
c-30 10 -111 45 -179 76 -159 73 -246 95 -372 95 -116 0 -199 -22 -277 -75
-29 -20 -57 -33 -63 -29 -19 11 -97 139 -117 190 -33 83 -46 185 -33 259 21
121 87 236 149 262 20 8 55 28 77 43 92 63 208 110 323 130 26 5 101 8 167 6
102 -1 126 -5 162 -24z m1534 -172 c13 -41 0 -105 -29 -139 -19 -24 -77 -37
-117 -27 -62 16 -90 152 -41 201 13 13 41 27 62 30 22 3 46 7 54 9 23 4 59
-34 71 -74z m-266 -53 c1 -69 26 -124 72 -154 25 -17 110 -22 151 -9 19 6 22
4 22 -17 0 -13 -10 -48 -22 -76 -18 -45 -24 -52 -42 -46 -90 27 -168 12 -231
-46 l-43 -39 -23 37 c-21 33 -24 50 -24 138 0 90 3 106 28 158 35 70 73 117
95 117 14 0 17 -11 17 -63z m-355 -141 c16 -51 21 -87 17 -115 -5 -43 -49
-111 -70 -111 -7 0 -39 24 -71 53 -56 50 -59 56 -63 108 -4 45 -1 59 18 83 26
33 71 55 115 56 29 0 31 -3 54 -74z m4585 -113 c20 -7 38 -60 30 -90 -6 -23
-149 -183 -164 -183 -11 0 -61 84 -61 102 0 9 8 33 17 53 12 26 21 34 35 30 9
-4 26 -2 36 4 31 17 34 0 6 -30 -29 -30 -29 -63 1 -66 26 -3 75 61 75 97 0 37
-32 64 -70 58 -34 -5 -34 -5 -19 24 9 17 17 19 56 13 25 -4 51 -9 58 -12z
m-2570 -273 c44 -6 143 -17 220 -26 221 -26 246 -30 315 -57 36 -13 149 -46
253 -72 224 -57 232 -56 267 31 22 53 37 69 37 39 0 -19 35 -98 47 -107 15
-10 36 2 36 21 0 25 86 101 114 101 3 0 -6 -30 -20 -67 -14 -36 -23 -72 -20
-80 7 -16 42 -17 53 0 9 14 103 60 110 53 2 -2 -6 -20 -19 -40 -17 -26 -28
-34 -44 -30 -28 7 -51 -20 -35 -40 7 -8 76 -40 154 -70 214 -84 358 -189 503
-369 118 -146 172 -270 181 -420 12 -192 -30 -319 -204 -609 -79 -132 -158
-298 -172 -358 -28 -121 -7 -185 72 -220 l40 -18 -25 -25 c-13 -13 -51 -34
-84 -46 -51 -20 -70 -22 -141 -16 -55 4 -83 11 -83 19 0 18 -21 35 -36 29 -9
-3 -14 -21 -14 -49 0 -32 -5 -46 -16 -51 -17 -6 -69 17 -110 50 l-23 18 55
103 c35 67 63 137 78 197 22 87 26 94 53 101 67 17 106 83 84 143 -22 63 -15
100 34 157 60 72 95 131 106 179 24 104 -51 189 -164 189 -68 0 -114 -18 -144
-55 l-27 -34 -33 49 c-23 34 -57 64 -109 97 -290 184 -335 221 -378 308 -15
31 -30 80 -33 109 l-5 51 45 31 c85 60 123 135 111 223 -8 58 -26 80 -49 61
-12 -10 -14 -25 -9 -70 7 -64 -5 -97 -53 -141 -74 -70 -181 -99 -358 -99 -232
0 -469 24 -825 81 -120 20 -143 21 -207 10 -133 -23 -192 -95 -164 -199 14
-54 27 -72 51 -72 25 0 30 21 14 51 -7 13 -13 42 -14 65 0 47 18 69 77 90 40
14 193 19 193 6 0 -4 -27 -31 -59 -60 -43 -37 -69 -72 -93 -119 -32 -67 -33
-70 -33 -204 l0 -137 -55 1 c-60 0 -110 -20 -134 -55 -15 -21 -16 -21 -83 39
-75 67 -100 114 -83 159 7 19 7 31 -1 40 -17 20 -40 17 -46 -6 -3 -11 -9 -20
-13 -20 -4 0 -18 -11 -31 -25 -13 -13 -27 -25 -30 -25 -35 -1 -48 238 -16 297
9 18 17 39 17 48 0 9 9 28 19 42 11 13 17 31 14 39 -7 18 -37 18 -53 -1 -7 -8
-39 -33 -71 -55 -54 -37 -59 -38 -59 -19 0 72 61 221 126 310 62 85 195 184
284 210 43 13 66 40 56 65 -8 20 -67 44 -108 44 l-33 1 45 41 c142 128 478
203 755 168z m-2030 -28 c17 -8 56 -39 87 -68 31 -30 60 -54 65 -54 5 0 30 20
57 45 124 113 246 123 341 28 51 -50 67 -55 139 -42 113 21 179 -20 217 -136
12 -36 26 -55 50 -70 18 -11 48 -35 66 -53 l33 -34 -40 -48 c-119 -142 -181
-320 -156 -445 9 -48 16 -61 32 -63 15 -2 25 5 33 27 7 16 24 40 38 53 l25 23
-8 -25 c-5 -14 -9 -79 -9 -145 0 -102 3 -127 22 -167 27 -59 55 -70 92 -34
l27 26 21 -44 c14 -27 49 -67 97 -107 53 -45 76 -71 76 -87 0 -43 31 -96 82
-142 46 -41 52 -51 58 -99 6 -48 3 -59 -31 -124 -44 -84 -79 -203 -79 -267 0
-25 9 -77 19 -115 l19 -69 -25 -30 c-40 -48 -63 -106 -63 -164 0 -46 4 -58 29
-82 16 -16 52 -36 83 -45 84 -24 94 -34 80 -82 -6 -22 -21 -48 -32 -58 -11
-10 -20 -24 -20 -32 0 -16 40 -33 76 -33 19 0 29 -8 41 -37 26 -62 27 -106 5
-155 -17 -40 -24 -46 -58 -51 -22 -4 -53 -7 -71 -7 -32 0 -32 1 -35 53 -3 44
-6 52 -23 52 -17 0 -21 -9 -27 -57 -8 -66 -25 -103 -63 -138 -23 -22 -36 -25
-93 -25 -73 1 -115 17 -155 61 -28 29 -41 68 -59 169 -10 54 -17 71 -31 73
-12 3 -20 -4 -24 -17 -3 -12 -9 -21 -13 -21 -4 0 -24 -16 -44 -35 -50 -47
-101 -61 -161 -46 -62 16 -90 35 -109 76 -21 44 -20 90 3 164 10 34 17 69 14
79 -2 11 16 45 47 87 151 204 208 368 197 565 l-5 96 29 16 c66 38 89 136 49
211 -29 53 -25 76 22 146 72 108 62 196 -31 258 -62 42 -165 23 -243 -46 l-35
-30 -15 33 c-34 70 -132 85 -236 36 -79 -37 -95 -37 -122 -2 -20 25 -21 34
-15 133 8 120 -3 160 -57 217 -53 54 -120 73 -251 70 -76 -2 -122 1 -144 10
l-31 14 24 51 c36 77 30 143 -12 135 -15 -2 -20 -15 -24 -55 -6 -60 -29 -96
-86 -135 -122 -84 -317 -98 -644 -49 -113 17 -230 36 -260 42 -62 11 -126 5
-182 -18 -94 -37 -114 -163 -36 -217 24 -17 104 -21 126 -7 8 5 12 17 10 27
-3 15 -12 19 -49 19 -55 0 -79 17 -79 57 0 64 79 98 198 84 109 -13 108 -11
43 -72 -125 -116 -189 -324 -151 -491 8 -33 44 -122 67 -164 2 -4 -9 -9 -24
-12 -81 -16 -142 -100 -145 -199 -2 -75 17 -102 97 -138 34 -15 66 -34 70 -40
11 -17 -25 -5 -108 36 -100 50 -169 100 -288 208 -83 76 -108 104 -112 129 -3
18 -9 44 -12 59 -5 19 -1 35 14 57 28 38 27 45 -11 105 -30 47 -33 57 -34 139
l-2 88 47 50 c31 35 57 53 81 58 26 5 35 12 35 26 0 15 -9 21 -35 25 -45 6
-144 64 -164 95 -10 15 -16 46 -16 78 0 54 8 71 85 176 17 23 25 47 25 73 0
51 28 90 83 117 55 27 67 26 145 -5 67 -27 96 -26 90 3 -3 18 -99 71 -130 72
-38 2 -51 128 -19 196 53 113 218 186 389 171 95 -9 175 -34 332 -106 70 -32
143 -63 162 -69 l34 -11 -1 -78 c0 -67 4 -84 30 -131 80 -144 247 -208 397
-151 45 17 54 18 68 5 28 -26 104 -55 145 -55 37 0 42 -4 70 -48 82 -131 181
-194 307 -194 58 0 81 5 134 32 138 68 197 201 168 379 -16 101 -32 121 -119
152 -107 37 -237 24 -356 -37 -45 -23 -49 -23 -85 -8 -21 9 -56 14 -81 12 -50
-4 -58 6 -54 68 3 44 -28 119 -75 181 -13 17 -24 36 -24 41 0 14 43 50 80 66
36 16 55 14 105 -12z m-321 -26 c76 -32 176 -167 176 -238 0 -22 -5 -38 -12
-38 -25 0 -184 98 -235 144 -51 46 -83 91 -83 116 0 29 99 39 154 16z m-115
-166 c31 -31 83 -71 116 -89 33 -18 61 -35 63 -36 2 -2 -4 -15 -13 -29 -20
-30 -41 -33 -74 -10 -21 15 -24 15 -39 1 -19 -20 -5 -40 48 -67 27 -14 39 -28
45 -52 13 -51 12 -52 -30 -64 -90 -27 -175 -8 -249 57 -115 101 -116 240 -3
357 l42 43 19 -28 c11 -15 45 -53 75 -83z m5805 76 c30 -12 36 -21 46 -68 24
-106 24 -200 0 -272 -23 -70 -21 -86 11 -86 23 0 35 26 57 130 8 41 23 84 32
95 10 11 33 46 53 77 30 47 43 59 77 69 36 11 44 10 68 -8 45 -33 50 -65 23
-141 -12 -37 -35 -83 -50 -102 -15 -19 -44 -61 -64 -92 -20 -31 -45 -62 -56
-68 -24 -12 -28 -45 -7 -53 7 -3 29 4 47 16 59 36 114 18 124 -42 6 -36 2 -44
-40 -100 -53 -69 -93 -103 -147 -121 -32 -12 -40 -11 -63 4 -22 14 -26 23 -20
44 3 15 18 39 32 54 28 29 26 58 -5 58 -36 0 -82 -68 -82 -122 0 -43 20 -71
65 -92 25 -12 35 -23 35 -40 0 -23 51 -78 81 -88 10 -3 8 -16 -11 -53 -41 -79
-45 -79 -151 14 -107 93 -210 149 -330 178 l-75 18 -12 49 c-7 28 -29 71 -52
102 -48 63 -55 123 -19 168 21 26 101 74 149 88 38 12 127 -20 144 -51 8 -14
23 -43 34 -64 11 -20 18 -46 15 -56 -7 -27 -58 -45 -125 -46 -45 0 -61 5 -80
23 -44 41 -91 14 -52 -30 28 -31 77 -48 136 -48 76 0 123 16 153 52 23 27 26
39 22 76 -3 24 -15 58 -28 76 -18 23 -25 50 -30 106 -4 41 -12 102 -18 135
-15 81 1 158 39 197 33 33 31 32 74 14z m1365 -33 c31 -25 39 -112 16 -173 -9
-25 -22 -67 -29 -95 -7 -32 -26 -69 -54 -104 -45 -57 -50 -84 -17 -88 14 -2
30 12 53 42 61 83 221 185 292 185 88 0 59 -102 -62 -217 -70 -65 -128 -98
-213 -120 -57 -15 -70 -22 -70 -38 0 -25 35 -31 88 -15 42 12 63 3 77 -34 7
-21 -7 -96 -19 -96 -3 0 -28 -18 -54 -39 -49 -41 -166 -87 -192 -77 -8 3 -15
16 -15 30 0 30 66 91 109 101 26 5 32 11 29 28 -11 77 -198 -42 -198 -126 0
-18 8 -43 17 -57 10 -14 16 -39 14 -60 -2 -31 3 -42 35 -69 31 -28 35 -35 23
-46 -21 -21 -131 -85 -145 -85 -7 0 -15 15 -18 33 -3 17 -10 67 -16 110 -16
109 -51 205 -115 317 -48 84 -55 103 -55 151 0 30 -7 91 -16 136 -20 101 -10
126 55 137 70 11 221 -37 221 -70 0 -8 11 -36 25 -62 33 -61 35 -146 5 -162
-15 -8 -29 -6 -60 10 -50 26 -107 75 -115 101 -7 22 -43 26 -51 5 -14 -37 50
-107 137 -152 82 -41 137 -27 159 42 16 47 7 126 -20 171 -24 41 -25 61 -4 84
8 9 24 66 34 125 11 60 22 119 25 132 14 56 80 80 124 45z m-6278 -209 c67
-20 91 -40 87 -73 -2 -20 -12 -29 -38 -38 -66 -23 -141 -16 -249 23 -56 20
-101 40 -101 44 0 9 59 32 120 49 54 14 121 13 181 -5z m-575 -22 c7 -9 11
-26 8 -38 -7 -28 20 -51 41 -34 8 7 15 21 15 31 0 15 8 19 40 19 21 0 51 -5
65 -12 25 -11 26 -15 20 -60 -6 -38 -3 -53 9 -67 24 -26 112 -65 131 -57 29
11 11 40 -38 63 -38 18 -47 28 -47 48 0 31 4 31 93 -4 137 -55 204 -60 326
-25 24 7 24 7 19 -54 -22 -236 -290 -335 -449 -165 -43 46 -79 97 -79 112 0 7
25 -7 56 -29 30 -23 62 -39 70 -36 29 11 12 42 -47 89 l-61 48 -50 -17 c-41
-13 -57 -14 -96 -4 -64 15 -116 51 -135 93 -23 47 -21 76 5 105 19 19 29 22
57 17 19 -4 41 -14 47 -23z m-2297 -91 c31 -31 35 -83 17 -178 -10 -46 -16
-110 -15 -141 l3 -56 -42 -13 c-23 -6 -55 -21 -72 -33 l-29 -21 -17 33 c-9 18
-17 50 -17 73 1 81 23 227 41 269 36 80 90 108 131 67z m-339 -201 c30 -16 95
-118 115 -180 10 -30 27 -65 38 -77 14 -16 21 -39 23 -74 1 -28 13 -71 26 -97
19 -38 31 -50 65 -62 38 -13 42 -17 36 -39 -10 -39 -8 -80 5 -93 19 -19 42 -1
42 34 0 57 10 76 42 83 23 5 28 12 26 28 -3 19 -11 23 -70 28 -77 6 -94 17
-108 68 -23 83 -10 107 81 143 91 37 217 21 271 -32 38 -38 39 -96 3 -130 -46
-43 -66 -162 -40 -230 3 -10 -9 -23 -40 -39 -93 -49 -187 -178 -249 -341 -30
-80 -36 -84 -102 -70 -71 15 -119 57 -130 115 -6 32 -4 41 11 50 42 23 65 58
65 97 0 21 7 50 16 64 39 58 -12 157 -94 182 -29 9 -39 9 -51 -2 -18 -19 -8
-32 43 -54 47 -21 79 -73 58 -94 -28 -28 -166 53 -205 119 -10 18 -21 56 -24
86 -5 53 -5 55 29 81 39 29 58 31 123 14 77 -21 89 25 13 53 -30 11 -51 30
-81 73 -36 50 -42 66 -45 121 -5 78 10 127 49 160 35 29 34 28 59 15z m8865
-66 c31 -14 59 -34 62 -43 3 -9 25 -48 49 -86 85 -139 131 -316 121 -473 -4
-70 -11 -96 -41 -155 -106 -213 -313 -339 -697 -427 -74 -17 -142 -33 -151
-36 -15 -4 -18 1 -18 33 0 58 -34 241 -56 297 -3 7 7 18 22 25 69 31 133 84
153 125 25 52 26 71 4 163 l-16 72 30 28 c34 32 73 102 73 132 0 13 18 29 54
50 58 33 91 71 121 139 11 25 36 56 59 74 23 17 57 46 76 64 32 29 52 39 86
43 7 0 37 -11 69 -25z m-305 -59 c0 -17 -60 -126 -84 -153 -23 -26 -87 -62
-109 -62 -20 0 -57 38 -57 59 0 11 9 21 23 25 40 10 104 63 147 121 40 54 42
56 61 39 10 -9 19 -22 19 -29z m-3765 1 c396 -49 584 -57 721 -31 43 8 80 13
82 10 2 -2 8 -25 13 -51 28 -149 127 -252 386 -402 39 -23 85 -54 103 -68 41
-35 73 -99 74 -149 2 -65 31 -54 81 30 34 59 47 72 80 83 50 17 96 8 135 -24
55 -47 39 -115 -53 -227 -73 -88 -86 -128 -65 -203 15 -53 15 -57 -3 -75 -42
-42 -99 -32 -99 18 0 31 -29 42 -46 18 -20 -27 -17 -50 10 -82 21 -25 23 -34
16 -78 -19 -114 -78 -240 -179 -380 -32 -44 -63 -90 -70 -102 -6 -13 -20 -23
-31 -23 -10 0 -40 -19 -67 -42 -89 -76 -307 -214 -377 -238 -37 -12 -80 -33
-95 -46 -16 -13 -36 -22 -44 -18 -8 3 -52 -2 -97 -10 -211 -41 -381 5 -630
168 -110 72 -201 154 -311 280 -225 257 -236 482 -38 741 94 124 117 231 76
360 -49 158 -44 318 13 409 40 63 166 169 194 162 11 -2 111 -16 221 -30z
m-2118 -92 c114 -2 139 -5 177 -24 77 -37 98 -92 82 -222 -9 -82 6 -140 47
-174 40 -33 92 -31 179 7 65 28 75 30 110 20 31 -10 42 -21 61 -59 13 -26 22
-54 20 -63 -2 -9 4 -19 13 -23 19 -7 44 10 44 30 0 25 60 81 109 103 58 25 99
20 135 -16 49 -49 43 -92 -25 -186 -42 -58 -46 -98 -18 -158 30 -66 29 -114
-5 -148 l-27 -26 -40 22 c-22 12 -47 19 -55 16 -25 -9 -15 -41 21 -63 l35 -22
0 -122 c0 -146 -14 -208 -75 -331 -103 -209 -262 -381 -541 -585 -131 -96
-139 -100 -242 -120 -135 -26 -265 -13 -447 47 -206 67 -374 169 -516 312
-140 141 -187 250 -176 406 4 56 13 88 48 160 43 88 44 92 44 190 -1 121 -17
172 -99 300 -31 49 -65 112 -75 141 -72 190 8 424 184 544 l40 27 105 -18
c283 -47 522 -27 642 55 l33 22 40 -20 c34 -18 60 -21 172 -22z m6923 -97 c0
-44 -40 -100 -112 -154 -51 -40 -108 -57 -108 -34 0 6 -13 18 -30 27 -53 32
-48 67 13 78 48 9 135 53 174 86 45 40 63 39 63 -3z m-1874 6 c-35 -120 -49
-164 -57 -168 -5 -3 -21 1 -36 8 -25 14 -27 18 -24 73 3 67 11 80 55 93 51 15
68 13 62 -6z m182 -19 c12 -3 22 -11 22 -18 0 -17 -118 -196 -129 -196 -6 0
-26 7 -44 16 l-34 16 30 97 c16 53 31 101 33 108 2 9 14 9 51 -2 26 -9 58 -18
71 -21z m170 -91 c32 -24 33 -26 15 -45 -10 -11 -55 -52 -101 -90 l-83 -71
-24 23 c-14 13 -25 27 -25 30 0 4 19 36 43 71 23 35 52 81 65 102 l22 39 28
-17 c15 -10 42 -29 60 -42z m-7348 -37 c33 -14 73 -34 90 -46 29 -21 30 -24
30 -102 0 -72 4 -88 30 -134 l30 -54 -20 -32 c-11 -18 -20 -41 -20 -52 0 -29
-26 -3 -78 79 -56 88 -117 152 -153 160 -23 5 -30 14 -35 41 -7 40 -1 96 15
137 13 34 33 34 111 3z m6360 -8 c19 -5 97 -12 173 -15 l138 -6 -35 -29 c-52
-42 -79 -95 -131 -253 -51 -153 -122 -296 -213 -432 -84 -124 -138 -183 -169
-183 -30 0 -193 69 -193 82 0 15 37 84 132 246 146 249 188 360 204 534 8 87
0 82 94 56z m1152 -143 l3 -40 -105 -53 -105 -53 -38 42 c-21 23 -36 46 -35
51 2 5 46 46 98 92 l95 84 42 -42 c33 -32 43 -49 45 -81z m-549 50 c266 -123
394 -314 437 -649 24 -188 -48 -328 -301 -590 -139 -144 -222 -215 -394 -338
-121 -87 -414 -261 -502 -299 -88 -38 -178 -68 -181 -61 -20 47 -40 77 -52 77
-32 0 -21 -53 39 -176 71 -148 124 -312 152 -469 11 -63 23 -134 28 -156 l8
-42 -68 -6 c-132 -13 -282 -67 -393 -141 l-55 -37 -93 46 c-75 37 -100 55
-128 93 -51 68 -95 87 -194 85 -45 -1 -110 -9 -146 -19 l-65 -18 -41 42 c-22
24 -50 43 -61 43 -12 0 -47 -14 -79 -30 -52 -28 -59 -29 -67 -14 -18 31 -80
95 -106 108 -40 21 -158 38 -215 31 -28 -3 -58 -1 -66 4 -12 9 -10 15 13 39
30 31 35 57 13 65 -19 7 -62 -27 -81 -63 -42 -82 -380 -106 -457 -33 -30 28
-58 25 -58 -6 0 -26 53 -69 98 -78 20 -4 93 -8 162 -8 105 0 136 4 194 24 55
19 73 21 88 12 10 -6 57 -11 105 -11 150 -1 185 -15 256 -104 81 -102 73 -428
-14 -578 -22 -37 -56 -81 -77 -98 -102 -84 -366 -102 -644 -44 -37 7 -82 15
-100 16 -18 1 -43 8 -55 16 -12 7 -61 24 -108 37 -59 17 -124 46 -210 95 -203
116 -271 175 -318 278 -31 66 -30 192 1 282 67 190 256 435 485 626 115 97
213 163 377 253 l135 74 155 1 c85 1 176 5 202 10 l47 9 -11 -39 c-13 -50 -5
-141 17 -184 41 -80 171 -167 287 -191 28 -6 88 -9 133 -7 212 11 420 193 466
408 25 116 -3 230 -71 299 -17 17 -29 35 -25 41 3 5 36 29 73 53 37 24 78 55
92 69 23 24 33 26 135 30 95 3 118 8 168 32 60 29 97 71 97 112 0 13 28 48 74
92 41 39 77 80 81 91 3 11 15 23 25 26 49 15 214 250 299 423 27 56 70 164 95
240 53 159 90 214 155 232 21 6 45 17 52 26 18 22 52 13 192 -51z m-7891 13
c4 -37 1 -47 -24 -74 -99 -106 5 -324 155 -324 33 0 37 -3 46 -37 28 -99 74
-136 211 -167 25 -5 25 -5 22 -105 l-3 -101 -30 16 c-88 45 -205 37 -370 -25
-125 -47 -184 -57 -233 -41 -20 6 -36 13 -36 15 0 1 7 19 15 38 20 48 19 150
-1 193 -11 24 -28 38 -60 50 -78 30 -107 -12 -30 -45 35 -15 44 -25 50 -51 18
-93 -12 -159 -122 -260 -90 -84 -161 -130 -254 -166 -128 -50 -325 -154 -366
-193 -48 -47 -79 -103 -87 -158 -9 -54 27 -121 80 -150 52 -29 115 -40 126
-22 6 10 9 9 14 -6 22 -65 71 -149 121 -203 42 -47 54 -66 46 -74 -9 -9 -23
-6 -54 10 -24 11 -88 30 -143 41 -140 29 -225 73 -308 160 -81 86 -130 168
-169 286 -27 77 -32 109 -36 220 -3 100 -1 145 12 195 59 230 240 440 490 567
93 47 164 68 338 103 81 16 161 36 178 45 16 8 45 39 63 68 76 117 239 235
328 236 24 1 27 -3 31 -41z m9800 -71 c259 -59 359 -103 470 -206 76 -69 131
-153 159 -241 22 -67 21 -120 -3 -120 -6 0 -31 18 -55 41 -49 45 -86 50 -91
12 -2 -14 2 -23 10 -23 8 0 33 -20 57 -44 l43 -43 5 -114 c5 -101 2 -127 -21
-223 -15 -60 -31 -115 -37 -123 -16 -19 -46 1 -66 42 -18 38 -33 47 -54 35
-12 -8 -12 -14 0 -42 22 -51 15 -118 -24 -215 -41 -103 -72 -156 -85 -148 -5
3 -12 26 -16 51 -11 76 -60 71 -56 -6 3 -35 -2 -45 -38 -79 l-40 -38 -36 33
c-39 38 -99 58 -156 52 -21 -2 -37 -1 -36 2 90 183 106 237 115 391 7 126 -5
185 -52 264 -32 52 -33 56 -12 49 94 -28 175 -85 202 -140 25 -53 16 -123 -21
-170 -50 -63 -50 -62 -32 -81 17 -16 19 -16 44 8 51 48 79 109 79 174 -1 97
-54 169 -165 225 -107 54 -172 64 -390 62 -244 -2 -384 18 -457 65 -21 14 -20
16 56 74 87 65 128 107 176 183 37 58 75 155 75 191 0 20 7 26 42 36 23 6 76
33 118 60 87 57 68 57 292 6z m-9749 -53 c26 -34 129 -101 166 -109 49 -11 50
-64 2 -90 -101 -52 -192 -8 -221 107 -10 37 -9 52 4 81 8 21 18 37 22 37 3 0
15 -12 27 -26z m4430 7 c57 -22 63 -152 13 -255 l-29 -59 -19 39 c-10 21 -43
62 -73 90 -49 45 -55 56 -55 90 0 44 21 81 54 94 28 12 79 12 109 1z m-3634
-40 c9 -5 36 -37 59 -70 l43 -60 -28 -17 c-139 -85 -218 -162 -296 -292 -55
-92 -106 -228 -114 -308 -3 -30 -9 -54 -13 -54 -13 0 -22 70 -27 220 -5 162
-14 130 93 356 49 103 106 169 180 208 53 27 76 31 103 17z m7621 -37 c0 -19
-4 -44 -10 -54 -8 -15 -130 -100 -144 -100 -5 0 -58 92 -54 94 2 1 46 22 98
48 52 26 98 47 103 47 4 1 7 -15 7 -35z m-7342 -289 c82 -79 172 -163 201
-186 77 -62 204 -135 274 -159 56 -19 64 -26 84 -66 19 -37 21 -49 11 -72 -17
-40 -14 -198 5 -260 31 -101 78 -173 177 -273 52 -52 134 -121 181 -152 90
-60 257 -142 345 -171 47 -15 53 -20 59 -52 8 -44 64 -102 130 -134 67 -32
176 -33 256 -1 68 26 170 111 184 154 7 23 48 59 160 143 83 62 180 141 216
174 l67 60 -5 -64 c-7 -88 2 -130 40 -173 43 -48 99 -73 170 -73 67 0 112 17
146 54 29 31 41 33 41 8 0 -55 34 -129 79 -173 57 -55 113 -73 206 -67 73 4
106 23 144 81 l24 37 86 0 86 -1 74 -68 75 -69 -40 -33 c-355 -304 -565 -658
-523 -884 27 -149 117 -250 334 -375 50 -28 92 -54 94 -56 14 -13 -156 -174
-266 -251 l-32 -23 -76 35 c-235 107 -393 295 -465 550 -12 41 -18 79 -15 84
3 6 29 23 58 40 29 16 81 56 116 87 69 62 201 227 201 250 0 19 -28 30 -42 16
-8 -8 -20 -3 -43 17 -43 37 -169 89 -237 97 -48 6 -57 4 -75 -15 -41 -44 -92
-267 -93 -402 l0 -76 -41 -29 c-23 -15 -67 -57 -99 -91 l-58 -64 -194 -1
c-200 -1 -1361 22 -1366 27 -9 8 -22 144 -22 239 0 213 44 420 139 651 64 155
70 179 48 188 -23 8 -34 -5 -57 -66 -12 -31 -22 -57 -23 -57 -1 0 -70 22 -153
49 -256 84 -325 121 -571 308 -273 207 -365 297 -478 462 -59 86 -136 271
-123 294 5 9 15 52 23 94 18 104 38 161 93 267 57 109 162 225 253 279 35 20
65 37 66 37 1 0 69 -65 151 -145z m604 -20 c60 -110 69 -239 25 -335 l-20 -45
-7 46 c-5 25 -15 60 -24 77 -16 31 -72 72 -98 72 -9 0 -28 10 -43 22 -26 20
-27 25 -22 77 7 63 29 99 78 124 55 28 80 19 111 -38z m7268 -155 c88 -63 204
-83 465 -81 116 1 215 -2 220 -6 6 -5 17 -20 25 -35 8 -14 28 -46 43 -71 39
-64 51 -147 37 -266 -15 -127 -49 -225 -116 -335 -30 -50 -58 -102 -61 -116
-4 -14 -1 -68 5 -120 17 -134 15 -215 -7 -303 -24 -93 -34 -113 -109 -214 -56
-76 -68 -85 -210 -172 -156 -95 -263 -149 -447 -223 -159 -64 -196 -73 -315
-72 -90 0 -114 4 -169 26 -217 90 -371 236 -582 551 -118 176 -132 209 -136
337 l-4 105 93 66 c133 95 249 199 383 346 156 169 229 279 259 392 l12 44
148 34 c152 34 342 92 386 118 34 19 47 19 80 -5z m-8635 -190 c43 -22 52 -31
64 -70 7 -25 26 -74 42 -110 15 -36 45 -105 65 -155 21 -49 55 -116 76 -148
66 -97 181 -228 261 -296 42 -36 73 -69 70 -75 -25 -44 -83 -62 -110 -35 -19
19 -38 4 -51 -39 -18 -58 -16 -70 28 -160 69 -143 161 -212 282 -212 26 0 48
-4 48 -8 0 -47 -109 -270 -185 -377 -50 -70 -179 -197 -227 -221 -18 -9 -57
-33 -87 -52 l-54 -36 -211 -1 c-187 0 -222 3 -311 23 -215 51 -277 72 -315
107 -14 12 -43 32 -66 43 -22 11 -63 39 -91 61 -49 38 -71 73 -123 196 -17 41
-13 212 6 239 8 11 14 40 14 64 0 69 -24 106 -196 301 -44 50 -91 112 -104
137 -54 110 -75 270 -45 354 8 23 15 53 15 66 0 27 75 72 183 109 90 31 195
98 289 184 75 70 76 71 105 56 55 -29 136 -19 293 36 129 44 153 49 215 47 50
-2 84 -10 120 -28z m6562 -6 c49 -20 90 -38 92 -40 9 -8 -136 -133 -154 -133
-44 -1 -70 43 -61 103 7 45 25 106 32 106 2 0 43 -16 91 -36z m-2347 -505
c127 -128 260 -223 417 -299 51 -25 92 -47 93 -50 0 -3 -26 -18 -57 -34 -90
-43 -212 -115 -278 -163 -32 -24 -62 -43 -65 -43 -3 0 -41 32 -83 71 l-77 70
20 39 c42 82 12 233 -51 266 -34 17 -33 12 -14 58 28 68 -10 122 -104 150 -89
26 -105 52 -79 127 6 19 20 47 31 62 l19 28 57 -83 c31 -45 108 -135 171 -199z
m1780 110 l51 -31 -33 -20 c-18 -11 -45 -31 -60 -45 -26 -25 -28 -25 -53 -9
-14 9 -25 25 -25 35 0 17 54 101 65 101 3 0 28 -14 55 -31z m-7275 -75 c-18
-70 -19 -110 -2 -190 l13 -61 -42 13 c-60 18 -81 31 -100 60 -37 55 9 161 93
214 26 17 48 28 50 26 2 -2 -3 -29 -12 -62z m7084 -177 c25 -65 9 -124 -55
-203 -64 -80 -194 -110 -270 -63 -45 27 -53 45 -45 99 6 45 7 46 133 130 69
47 146 102 170 122 l43 36 6 -47 c4 -25 12 -59 18 -74z m192 10 c113 -156 -2
-438 -223 -546 -130 -64 -240 -65 -371 -3 -155 72 -205 176 -150 313 12 32 26
46 57 60 62 28 68 26 61 -24 -6 -42 -5 -44 48 -94 44 -42 63 -53 101 -58 137
-21 262 52 327 188 32 69 36 111 14 164 -8 19 -15 50 -15 69 l0 33 62 -32 c36
-19 72 -47 89 -70z m3507 -57 c70 -43 63 -88 -29 -185 -60 -64 -72 -95 -64
-166 6 -50 4 -59 -17 -83 -13 -14 -38 -29 -55 -32 -39 -8 -39 -7 -21 98 9 55
8 93 -2 182 -24 194 -19 206 83 206 54 0 80 -5 105 -20z m-2282 -228 c1 -53 8
-95 23 -134 26 -67 109 -201 209 -339 83 -112 83 -107 4 -181 -87 -82 -228
-136 -323 -125 -75 9 -149 55 -149 91 0 3 24 6 53 6 34 0 70 9 103 24 52 24
104 79 104 110 0 29 -48 40 -118 26 -101 -20 -224 1 -274 47 -30 27 -21 38 32
40 28 2 65 11 82 20 17 10 41 24 54 31 13 7 24 19 24 27 0 15 -34 38 -43 29
-11 -11 -156 67 -175 94 -42 60 -38 67 62 121 50 28 143 81 206 120 63 38 117
69 120 70 3 0 6 -34 6 -77z m-6425 -78 c64 -49 125 -94 135 -100 17 -10 16
-13 -12 -54 -49 -73 -73 -85 -167 -85 -96 1 -146 22 -196 81 -45 55 -91 147
-91 183 0 29 2 30 30 25 39 -8 86 12 111 47 l21 29 26 -19 c15 -10 79 -59 143
-107z m1444 -19 c102 -18 191 -19 283 -1 39 7 72 10 72 6 0 -16 -102 -82 -147
-96 -101 -31 -221 -3 -273 63 -17 22 -26 43 -17 43 1 0 38 -7 82 -15z m-3239
-101 c63 -78 85 -131 65 -163 -7 -11 -16 -11 -47 -1 -93 29 -146 92 -130 155
5 21 45 53 67 55 4 0 24 -21 45 -46z m7814 -104 c16 -11 50 -30 75 -41 26 -11
44 -24 40 -27 -4 -4 -37 -9 -73 -12 -62 -5 -67 -7 -77 -33 -14 -43 19 -93 86
-131 52 -30 58 -31 176 -31 66 0 119 -3 116 -8 -8 -14 -58 -34 -98 -40 -28 -5
-44 -2 -57 10 -51 46 -94 -73 -49 -136 11 -14 41 -38 68 -51 42 -22 61 -25
148 -25 97 0 103 1 189 43 66 32 103 58 149 104 l60 62 63 -70 c38 -41 61 -75
59 -84 -8 -26 61 -156 105 -199 65 -63 123 -64 227 -5 36 21 54 24 145 24 59
0 126 7 158 15 30 8 56 15 56 15 1 0 36 -43 78 -95 77 -94 146 -154 202 -175
16 -7 70 -18 119 -26 50 -8 115 -26 145 -40 109 -51 147 -59 290 -59 117 0
148 4 234 28 l100 27 32 -31 c48 -46 92 -136 110 -225 34 -164 2 -434 -70
-586 -14 -30 -26 -62 -26 -70 0 -35 -161 -61 -375 -61 -210 -1 -377 21 -600
79 -77 20 -170 43 -206 52 -51 11 -76 24 -112 56 l-46 41 25 85 c15 49 28 123
31 176 l6 91 -34 37 c-25 27 -46 38 -81 45 -60 11 -93 32 -114 74 -9 17 -27
43 -39 57 -42 46 -57 174 -28 236 27 57 9 64 -158 64 -159 0 -269 17 -424 65
-203 63 -492 125 -587 125 -15 0 -29 4 -32 9 -3 5 -17 75 -31 156 -30 176 -70
321 -125 447 -22 51 -42 97 -43 101 -1 5 25 19 58 31 l60 23 23 -48 c13 -27
36 -58 52 -69z m-5728 40 c46 -23 148 -61 228 -87 80 -25 148 -49 153 -53 4
-3 -8 -47 -27 -96 -42 -108 -81 -290 -97 -449 -9 -90 -9 -145 0 -238 6 -66 9
-122 7 -125 -3 -2 -70 -5 -150 -6 -82 0 -149 -5 -154 -11 -5 -5 -78 -95 -162
-200 -85 -104 -177 -217 -205 -250 l-52 -60 -174 6 c-96 4 -195 10 -221 14
l-48 7 0 63 c0 66 -15 93 -45 81 -16 -6 -19 -64 -7 -146 l7 -45 65 -11 c36 -7
136 -12 223 -13 86 -1 157 -4 157 -7 0 -5 -194 -243 -432 -531 -143 -172 -140
-171 -296 -144 -297 51 -439 210 -472 533 -18 183 4 329 101 672 33 115 62
226 65 247 8 47 6 47 144 13 76 -18 145 -27 250 -31 l145 -6 40 -34 c71 -61
208 -113 297 -113 145 0 228 155 216 404 l-4 90 39 65 c55 91 125 236 143 299
13 44 22 56 52 71 41 21 70 50 98 99 10 17 22 32 25 32 4 0 45 -18 91 -40z
m8001 -333 c10 -27 73 -47 146 -47 46 0 71 -4 71 -11 0 -29 -47 -82 -105 -120
-35 -22 -66 -48 -70 -57 -3 -10 4 -26 20 -41 21 -22 35 -26 80 -26 30 0 55 -3
55 -8 0 -4 -9 -27 -21 -51 -39 -85 -110 -135 -242 -171 -31 -9 -70 -27 -86
-41 -23 -19 -34 -22 -53 -15 -13 5 -60 14 -104 21 -84 13 -132 33 -182 75 -33
28 -152 171 -152 183 0 4 28 18 63 31 108 41 338 157 447 224 112 69 125 75
133 54z m1440 -13 c45 -45 48 -145 7 -262 -11 -31 -20 -68 -20 -83 0 -22 -6
-29 -29 -34 -50 -11 -53 -55 -4 -55 14 0 31 -7 38 -17 16 -22 45 -10 45 19 0
14 9 27 22 33 20 9 37 31 105 140 41 67 148 101 173 56 42 -79 -27 -209 -155
-293 -36 -23 -65 -46 -65 -50 0 -4 -9 -8 -20 -8 -10 0 -30 -5 -44 -11 -58 -27
-31 -69 30 -49 36 12 39 11 61 -14 36 -42 30 -79 -22 -135 -55 -59 -140 -103
-210 -109 -47 -4 -54 -2 -60 16 -12 41 44 99 121 125 27 10 39 20 39 33 0 47
-105 14 -173 -53 -42 -43 -44 -46 -38 -91 3 -26 6 -54 5 -62 -3 -114 -8 -162
-19 -175 -17 -21 -76 -51 -116 -59 l-31 -7 -6 158 c-6 171 -19 235 -66 335
-28 57 -29 65 -16 85 20 30 19 62 -7 155 -28 104 -21 113 91 113 72 0 83 -3
122 -30 45 -32 92 -106 114 -180 12 -39 12 -47 -1 -60 -20 -20 -84 -19 -113 1
-12 9 -38 41 -58 71 -35 55 -48 61 -67 30 -14 -22 55 -123 103 -151 60 -35
177 -17 195 29 17 45 -14 155 -64 225 -19 27 -20 35 -10 60 7 16 12 80 12 150
0 114 2 123 25 151 32 37 71 38 106 3z m-11556 -20 c22 -15 47 -24 60 -21 19
4 25 -3 39 -47 36 -108 118 -197 237 -257 44 -23 41 -31 -16 -60 -87 -45 -237
-16 -309 58 -75 77 -108 217 -74 308 10 25 19 45 21 45 2 0 21 -12 42 -26z
m4412 -94 c68 -18 144 -55 169 -82 l23 -26 -49 -58 c-61 -73 -154 -160 -196
-181 -17 -8 -45 -26 -63 -39 -30 -23 -32 -23 -38 -5 -8 27 13 195 35 281 30
109 40 131 59 126 9 -3 36 -10 60 -16z m4529 -168 c39 -20 72 -39 72 -42 0 -9
-64 -30 -92 -30 -14 0 -37 9 -52 21 -25 19 -86 113 -86 132 0 5 19 -4 43 -18
23 -14 75 -43 115 -63z m-7330 -97 c-6 -136 -51 -219 -128 -238 -40 -10 -154
19 -222 55 -105 56 -85 72 54 43 86 -19 138 -12 178 21 33 29 61 94 64 152 1
28 10 50 26 68 31 33 34 24 28 -101z m4956 59 c4 -9 5 -18 3 -20 -12 -13 -120
-53 -128 -48 -20 12 -3 37 41 60 52 28 75 30 84 8z m379 -38 c18 -7 41 -23 51
-35 19 -21 19 -22 1 -35 -29 -21 -12 -48 27 -45 55 5 244 -95 268 -142 11 -19
8 -19 -37 4 -58 30 -205 77 -238 77 -13 0 -26 -4 -29 -9 -14 -22 11 -40 87
-61 156 -42 244 -95 309 -184 41 -57 36 -71 -15 -36 -100 67 -257 130 -325
130 -21 0 -34 -20 -24 -37 4 -6 43 -20 87 -32 133 -37 285 -129 285 -173 0 -8
-39 -9 -126 -4 -118 6 -128 8 -146 31 -10 13 -48 39 -84 56 -59 29 -66 31 -81
17 -21 -21 -13 -31 51 -62 60 -29 106 -76 106 -107 0 -15 -7 -19 -39 -19 -22
0 -60 9 -86 20 -108 46 -221 80 -286 86 -59 6 -69 10 -64 23 4 9 17 59 31 111
33 127 41 246 21 330 -9 36 -12 68 -9 72 13 13 126 36 180 37 29 1 67 -5 85
-13z m-5453 -32 c0 -15 -12 -38 -29 -55 -24 -24 -38 -29 -75 -29 -25 0 -46 3
-46 8 0 4 25 21 56 37 30 17 63 38 71 48 21 22 23 22 23 -9z m5144 -75 c6 -29
13 -27 -132 -45 l-53 -7 3 34 c3 31 8 35 78 65 l75 32 11 -27 c6 -14 14 -38
18 -52z m1401 46 c114 -20 303 -67 420 -104 150 -48 248 -64 397 -65 117 -1
137 -3 133 -16 -2 -8 -7 -32 -11 -53 -3 -20 -10 -40 -15 -43 -17 -10 -51 -87
-185 -415 -73 -179 -173 -418 -222 -530 -108 -245 -157 -367 -206 -516 -21
-62 -42 -115 -46 -118 -11 -7 -167 19 -275 46 -44 11 -192 58 -330 104 -333
112 -416 129 -605 122 -221 -9 -354 -45 -495 -137 -37 -24 -73 -40 -85 -38
-20 3 -13 20 91 223 61 121 173 335 247 475 74 140 150 286 168 324 38 78 46
86 91 86 36 0 63 29 63 68 0 21 4 23 23 18 12 -4 58 -9 102 -12 65 -4 87 -2
115 13 30 16 35 23 35 55 0 20 6 42 13 49 6 7 12 22 12 33 0 26 -50 114 -79
140 -11 11 -21 31 -21 46 0 15 -11 44 -25 64 -14 20 -25 41 -25 46 0 12 105
74 170 100 127 50 187 61 325 56 72 -3 171 -12 220 -21z m2930 -135 c59 -28
67 -37 107 -125 49 -107 57 -158 59 -370 2 -164 0 -185 -19 -236 -45 -114
-130 -179 -322 -243 -57 -19 -106 -33 -108 -31 -2 1 5 20 16 42 32 61 71 219
84 336 21 192 -18 382 -102 493 -23 31 -40 57 -38 59 1 1 48 23 103 49 112 51
157 57 220 26z m-4325 -46 c0 -39 -3 -53 -11 -48 -7 4 -48 10 -93 13 -79 6
-81 7 -78 31 2 14 5 27 7 28 2 2 41 10 87 17 46 7 84 13 86 14 1 0 2 -24 2
-55z m-2370 -26 c22 -88 62 -187 106 -262 84 -143 245 -287 387 -346 32 -13
57 -27 57 -30 0 -15 -129 -71 -188 -81 -92 -16 -139 -6 -228 52 -135 89 -236
197 -314 340 -34 63 -40 83 -40 135 0 68 10 86 88 158 52 48 92 76 109 76 7 0
17 -19 23 -42z m2321 -70 c28 -8 38 -16 35 -27 -3 -9 -10 -35 -16 -58 -6 -24
-16 -43 -23 -43 -7 0 -44 11 -83 24 -68 23 -69 24 -66 57 1 19 4 40 7 47 6 16
94 16 146 0z m-3529 -74 l617 -6 -26 -38 c-38 -58 -40 -107 -10 -174 14 -31
23 -56 19 -56 -4 0 -83 -7 -177 -15 -257 -22 -368 -20 -515 12 -114 24 -146
26 -360 27 -230 1 -236 0 -267 -22 -20 -14 -68 -82 -127 -181 -53 -87 -115
-184 -139 -217 -76 -102 -220 -256 -379 -404 -289 -267 -421 -437 -422 -539
l-1 -46 40 1 c22 0 58 4 80 8 l40 9 -47 -37 c-27 -20 -48 -41 -48 -46 0 -6
-22 -26 -50 -46 -55 -39 -59 -48 -31 -63 15 -8 27 -5 52 12 52 35 237 61 386
55 104 -5 129 -9 208 -40 201 -78 321 -98 595 -98 109 0 221 -5 255 -12 33 -6
87 -12 120 -13 46 0 71 -7 105 -27 161 -96 345 -128 733 -128 290 0 467 24
662 90 226 76 363 207 381 366 l6 50 -66 76 c-77 88 -145 128 -307 182 -150
50 -301 70 -469 62 -143 -7 -340 -23 -378 -32 -20 -4 -22 -2 -16 21 8 34 60
166 65 167 32 3 133 -20 165 -38 50 -29 113 -31 170 -5 24 11 53 17 68 14 37
-7 156 32 204 67 57 41 89 102 102 188 13 93 35 135 103 198 l56 51 79 -5
c127 -7 235 28 332 107 25 20 61 48 80 61 78 53 189 152 230 204 33 44 46 54
59 47 9 -5 52 -19 96 -31 44 -12 82 -24 84 -26 2 -2 -38 -47 -89 -101 -88 -93
-434 -500 -492 -579 -35 -47 -35 -67 1 -113 41 -52 67 -107 82 -175 9 -41 10
-61 2 -63 -34 -12 -106 -67 -123 -95 -31 -50 -26 -91 15 -137 62 -68 156 -99
601 -196 261 -57 365 -84 527 -134 181 -57 276 -75 361 -67 75 6 67 8 351 -75
163 -47 367 -97 426 -105 30 -4 74 -17 99 -30 l45 -23 -760 5 c-418 3 -1178
10 -1690 15 -511 5 -1398 13 -1970 19 -2490 22 -2425 21 -2415 39 5 9 52 68
106 131 53 63 160 193 237 289 77 96 172 211 210 255 39 45 79 100 89 123 10
24 32 50 49 60 26 16 219 242 474 558 49 61 143 175 210 255 66 80 171 208
233 285 l112 140 168 -2 c92 -2 445 -6 784 -9z m5873 -199 c-58 -122 -64 -141
-51 -154 23 -22 35 -6 96 123 30 63 57 115 60 115 3 1 11 -8 17 -18 10 -17 6
-34 -32 -114 -48 -100 -54 -131 -30 -141 18 -6 34 16 70 99 37 83 42 88 69 68
l22 -17 -32 -76 c-17 -42 -77 -211 -132 -375 -93 -278 -181 -517 -416 -1130
-51 -132 -101 -261 -110 -287 -19 -52 -23 -55 -51 -34 -18 13 -18 15 9 75 31
70 32 116 1 116 -14 0 -22 -11 -31 -41 -6 -22 -20 -56 -30 -75 -18 -34 -18
-34 -24 -9 -4 15 0 38 10 60 35 71 65 179 53 191 -19 19 -40 3 -56 -43 -9 -24
-23 -64 -33 -90 -9 -26 -20 -45 -25 -42 -19 11 -8 67 27 140 19 41 33 82 30
90 -12 31 -42 8 -75 -56 l-33 -65 5 88 c5 84 7 91 55 170 31 51 68 132 95 212
64 183 105 289 180 455 85 191 124 283 255 605 61 149 120 293 133 320 l22 50
9 -36 c8 -32 3 -48 -57 -174z m-4997 189 c49 -6 52 -8 52 -35 0 -26 -4 -29
-31 -29 -18 0 -48 12 -70 28 -60 42 -53 48 49 36z m-121 -49 c48 -45 110 -75
154 -75 31 -1 36 -5 56 -48 63 -132 196 -287 321 -371 l62 -42 -63 -62 c-68
-68 -87 -107 -105 -220 -16 -102 -55 -145 -166 -183 l-41 -14 33 28 c32 29 43
61 20 63 -30 3 -46 -5 -90 -47 -48 -45 -123 -84 -159 -84 -11 0 -29 5 -40 11
-18 9 -15 14 38 48 70 46 97 75 90 96 -10 24 -28 18 -87 -26 -29 -22 -69 -47
-88 -55 -37 -15 -128 -19 -136 -6 -3 5 0 25 6 45 10 33 15 37 44 37 41 0 144
39 151 57 3 8 1 19 -6 26 -10 10 -66 -2 -138 -30 -19 -7 -15 36 5 74 10 20 37
43 67 59 28 14 63 33 78 41 17 9 27 22 25 32 -5 26 -46 25 -90 -4 l-41 -27 7
28 c4 16 28 73 53 127 73 158 70 268 -9 301 -42 18 -88 89 -88 136 0 48 46
120 77 120 12 0 39 -16 60 -35z m7890 -36 c-10 -79 -83 -150 -177 -175 -98
-25 -139 -1 -124 75 6 27 11 31 38 31 53 0 129 27 192 69 32 22 63 40 68 40 5
1 6 -17 3 -40z m-5182 0 c50 -19 53 -22 44 -43 -23 -50 -116 -72 -181 -43
l-26 12 30 53 c34 60 31 59 133 21z m241 -119 c44 -10 190 -64 213 -79 20 -13
17 -20 -205 -441 -105 -201 -225 -431 -265 -512 -41 -82 -79 -148 -86 -148 -7
0 -106 57 -220 126 -331 201 -495 275 -725 324 -124 27 -340 37 -458 21 -50
-7 -93 -11 -95 -9 -10 10 513 609 551 631 7 4 64 -2 126 -13 342 -61 572 -39
696 65 l31 26 65 -17 c75 -19 118 -14 167 19 28 19 45 22 99 19 36 -1 83 -7
106 -12z m2498 -56 c25 -24 29 -57 17 -136 -16 -104 -138 -456 -243 -703 -142
-330 -262 -640 -349 -896 -77 -227 -108 -299 -128 -299 -5 0 -14 13 -21 29 -6
16 -22 39 -35 51 l-24 23 23 46 c13 25 27 57 31 71 4 14 40 111 80 215 225
581 318 832 415 1120 94 278 160 461 176 487 9 13 42 9 58 -8z m-6379 -49
c262 -49 259 -49 445 -36 96 7 232 15 301 18 122 5 127 5 138 -16 16 -29 -1
-121 -35 -186 -14 -27 -45 -104 -69 -170 -45 -127 -47 -132 -102 -290 -20 -55
-48 -135 -64 -177 -16 -43 -29 -86 -29 -97 0 -22 -12 -27 -90 -36 -98 -12
-183 -35 -257 -71 l-73 -35 -34 23 c-19 13 -38 33 -41 45 -9 35 -63 91 -101
103 -68 23 -149 -43 -149 -121 0 -34 6 -46 33 -70 20 -18 43 -29 61 -29 21 0
32 -6 36 -20 3 -11 17 -28 31 -39 l25 -20 -30 -86 c-17 -48 -31 -95 -31 -105
0 -27 -62 -34 -239 -27 -153 6 -229 18 -420 67 -307 80 -563 126 -645 116 -28
-4 -68 -6 -88 -6 -21 0 -56 -4 -79 -10 -23 -6 -43 -9 -46 -6 -3 2 11 36 31 74
48 90 169 226 346 387 155 141 321 317 405 429 29 39 92 136 140 216 102 169
108 177 149 190 44 14 384 3 481 -15z m6427 -415 c21 -23 38 -49 38 -60 0 -10
57 -110 126 -222 70 -112 205 -331 301 -486 96 -156 230 -370 299 -474 68
-105 124 -194 124 -198 0 -4 -6 -10 -12 -12 -16 -6 -1283 10 -1405 18 l-91 6
63 181 c81 234 220 590 328 837 46 107 104 252 128 323 23 70 47 127 53 127 5
0 26 -18 48 -40z m-3887 -257 c119 -19 308 -82 432 -142 78 -38 500 -288 523
-309 3 -3 -1 -7 -8 -9 -7 -3 -38 -22 -69 -42 l-55 -38 -55 15 c-45 13 -56 13
-63 2 -13 -21 -1 -38 38 -51 45 -14 69 -34 32 -26 -14 3 -44 12 -67 18 -35 11
-45 11 -55 0 -17 -16 18 -46 73 -62 33 -10 39 -16 39 -40 0 -15 3 -35 7 -45 5
-13 3 -16 -8 -11 -315 136 -546 199 -967 267 -70 11 -152 26 -182 32 l-55 12
45 6 c40 4 45 8 45 30 0 22 -5 25 -41 28 l-42 3 -6 59 c-4 33 -14 83 -22 111
-19 64 -14 69 73 69 63 0 83 11 64 34 -17 20 -77 27 -132 15 -47 -10 -50 -9
-73 18 -45 51 -50 49 184 73 94 9 228 3 345 -17z m1915 -318 c90 -20 172 -45
340 -104 179 -64 365 -116 490 -137 52 -9 96 -17 98 -19 2 -2 -9 -23 -24 -47
-16 -23 -28 -44 -29 -44 0 -1 -34 4 -75 12 -112 20 -150 18 -150 -5 0 -26 6
-29 91 -41 118 -17 112 -12 104 -89 -4 -36 -8 -67 -10 -69 -1 -2 -33 3 -70 9
-55 11 -68 10 -75 -1 -16 -26 3 -39 81 -56 62 -13 85 -23 100 -43 29 -36 10
-38 -87 -11 -65 19 -79 20 -90 8 -25 -25 5 -43 117 -72 58 -15 112 -32 119
-36 30 -19 2 -18 -69 2 -61 17 -76 18 -87 6 -23 -23 0 -38 107 -69 57 -17 118
-39 134 -50 l30 -21 -100 6 c-111 6 -312 44 -575 110 l-175 44 38 15 c20 9 40
23 43 32 4 9 -5 42 -20 74 -14 32 -26 67 -26 78 0 17 5 18 58 12 98 -12 179
-10 185 4 11 28 -12 37 -128 47 -110 11 -133 17 -273 71 -256 100 -490 151
-536 116 -12 -9 -17 -20 -13 -31 5 -12 20 -16 66 -16 93 0 158 -17 165 -43 11
-43 5 -73 -28 -139 -18 -36 -36 -76 -39 -88 -3 -13 -11 -20 -19 -17 -41 17
-239 77 -271 82 l-38 6 22 31 22 31 83 -6 c66 -5 83 -3 88 8 8 22 -22 45 -57
45 -18 0 -48 3 -68 6 -35 6 -36 8 -46 62 -11 62 -5 74 47 87 29 8 40 22 33 42
-7 17 -51 16 -83 -2 -29 -16 -40 -18 -40 -7 0 11 73 52 93 52 8 0 20 7 27 16
11 12 11 18 -2 31 -13 13 -22 13 -51 4 -20 -7 -52 -23 -72 -37 l-36 -24 -31
21 -30 22 23 19 c72 56 231 110 374 127 96 12 255 5 345 -14z m-4446 -14 c33
-34 31 -56 -6 -79 -21 -12 -35 -14 -65 -6 -33 8 -38 13 -41 41 -4 38 26 73 61
73 13 0 36 -13 51 -29z m1396 -24 c127 -34 259 -91 306 -131 l39 -34 -30 -62
c-56 -118 -145 -175 -337 -215 -211 -44 -287 -50 -618 -50 -294 0 -321 2 -405
23 -112 28 -239 89 -284 135 l-33 36 21 43 c29 60 83 109 171 156 101 54 152
67 348 92 281 35 340 39 537 36 166 -3 202 -7 285 -29z m650 -39 c0 -12 -7
-30 -16 -40 -22 -24 -6 -44 44 -51 132 -20 482 -81 562 -98 184 -40 451 -125
597 -190 36 -16 73 -29 83 -29 11 0 22 -5 25 -10 11 -17 83 -50 110 -50 41 0
20 -17 -30 -23 -61 -9 -193 15 -345 63 -184 57 -285 83 -590 150 -425 94 -504
121 -536 183 -14 25 -14 31 1 53 15 23 71 64 88 64 4 0 7 -10 7 -22z m-1952
-50 c9 -9 7 -17 -10 -35 -25 -27 -41 -29 -58 -8 -10 13 -10 19 5 35 20 23 45
26 63 8z m3584 -56 c110 -69 149 -190 92 -288 -15 -26 -33 -44 -44 -44 -10 0
-34 22 -54 50 -23 32 -43 50 -56 50 -35 0 -33 -26 5 -76 30 -39 36 -54 31 -78
-4 -16 -7 -31 -9 -32 -1 -1 -28 5 -60 13 -57 16 -58 17 -52 47 4 17 15 49 26
71 16 34 17 41 4 54 -17 17 -38 4 -61 -41 -25 -48 -99 -36 -129 22 -31 60 -10
150 45 187 119 82 134 89 182 87 27 -1 62 -11 80 -22z m-1872 -131 c0 -21 -12
-60 -26 -89 -116 -233 -588 -356 -1199 -312 -169 12 -248 25 -339 56 -129 44
-205 106 -226 183 -17 65 -5 75 43 38 174 -132 487 -180 952 -147 448 33 663
113 740 277 22 45 29 52 41 42 8 -6 14 -28 14 -48z m-2929 -32 c68 -12 219
-45 334 -74 312 -79 363 -87 573 -87 l183 -1 14 -28 c20 -38 7 -43 -64 -24
-42 11 -109 15 -239 15 -289 0 -432 20 -607 85 -49 18 -110 39 -135 46 -55 16
-306 16 -370 1 -24 -6 -45 -10 -46 -9 -1 1 22 23 53 50 53 45 57 47 117 47 35
0 119 -9 187 -21z m5594 -79 l150 -58 6 -49 c4 -27 14 -63 23 -80 21 -41 21
-43 -9 -43 -13 0 -42 -6 -62 -14 -21 -8 -83 -22 -138 -31 -55 -9 -116 -21
-135 -26 -56 -14 -64 -11 -99 34 -39 50 -37 68 15 171 26 51 37 84 37 119 l1
48 30 -7 c17 -3 99 -32 181 -64z m-570 -166 c33 -8 95 -27 137 -42 65 -23 82
-34 107 -69 l31 -42 -33 6 c-60 11 -400 104 -418 114 -27 14 -24 47 4 52 31 5
102 -2 172 -19z m661 -158 c33 -16 343 -93 549 -136 143 -31 297 -50 390 -50
47 0 56 -4 79 -31 33 -39 44 -78 25 -90 -25 -15 -178 -10 -277 11 -54 11 -216
51 -362 90 -146 39 -301 78 -345 86 -44 9 -107 24 -140 35 -33 11 -80 24 -105
30 -65 14 -70 26 -14 34 27 4 74 13 104 20 30 7 58 14 61 14 3 1 19 -5 35 -13z
m-6056 -108 c1990 -18 3859 -38 3945 -43 50 -3 518 -4 1040 -4 523 1 973 1
1000 0 60 -1 164 -25 520 -120 476 -126 577 -131 678 -33 21 20 51 62 67 92
l28 55 133 -6 c74 -4 424 -10 779 -13 l645 -6 17 -33 c41 -77 8 -270 -56 -324
l-31 -26 -1455 7 c-800 4 -1786 11 -2190 16 -847 11 -3412 28 -5013 34 -1253
4 -1125 -7 -1182 97 -26 47 -29 64 -29 129 1 51 8 93 23 132 l22 56 67 -1 c37
0 483 -4 992 -9z"/>
<path d="M7684 8144 c-47 -23 -138 -119 -131 -138 11 -28 35 -18 97 39 73 67
106 72 150 24 18 -20 34 -30 44 -26 24 9 19 39 -10 70 -44 48 -95 58 -150 31z"/>
<path d="M8315 8056 c-58 -18 -85 -35 -85 -52 0 -24 26 -27 77 -10 76 26 114
22 153 -19 60 -62 104 -33 48 31 -56 63 -108 77 -193 50z"/>
<path d="M7917 7943 c-4 -3 -7 -15 -7 -25 0 -29 -21 -31 -101 -8 -129 35 -189
24 -251 -49 -82 -96 -75 -270 14 -334 33 -25 118 -34 157 -17 37 15 100 104
112 159 10 45 0 101 -27 154 -13 24 -13 27 1 27 28 0 70 -27 108 -69 61 -67
72 -97 71 -186 -1 -98 -30 -176 -100 -271 -48 -63 -50 -64 -84 -57 -19 5 -69
7 -111 6 l-75 -2 -33 55 c-47 79 -73 161 -60 186 9 16 7 24 -5 36 -14 14 -17
14 -37 -4 -18 -16 -20 -26 -15 -68 5 -50 49 -155 85 -205 l20 -28 -24 -11
c-27 -13 -32 -34 -12 -50 8 -7 28 -3 67 13 68 30 132 31 236 5 71 -17 80 -18
94 -4 13 14 13 17 -8 34 l-23 19 50 73 c65 96 91 175 91 277 0 72 3 83 25 105
29 29 33 64 9 73 -11 4 -23 -3 -35 -18 -15 -20 -21 -21 -28 -10 -6 9 -4 22 6
37 8 13 13 39 11 61 -2 30 -7 38 -23 38 -15 0 -21 -8 -23 -30 -5 -41 -15 -49
-35 -27 -16 17 -16 21 -2 50 12 24 14 36 5 52 -11 20 -31 26 -43 13z m-192
-71 c19 -13 65 -129 65 -162 0 -67 -68 -160 -117 -160 -35 0 -88 31 -104 62
-20 37 -13 143 13 189 29 53 112 94 143 71z"/>
<path d="M8435 7823 c-150 -21 -223 -109 -213 -258 2 -35 0 -61 -5 -58 -4 3
-17 -3 -28 -13 -15 -13 -19 -30 -19 -74 0 -61 -7 -70 -55 -70 -23 0 -40 -24
-29 -41 3 -5 41 -8 85 -7 80 3 81 3 110 -30 47 -53 41 -86 -31 -157 -61 -61
-73 -88 -43 -99 12 -5 35 11 79 55 62 62 62 62 112 57 27 -3 78 -18 113 -35
35 -16 70 -28 77 -25 19 6 14 40 -8 52 -21 11 -20 12 10 48 76 92 140 201 140
240 0 13 15 29 43 45 23 14 49 37 57 51 12 24 12 29 -4 44 -16 16 -19 15 -44
-16 -30 -36 -37 -39 -46 -16 -4 10 5 26 25 45 25 23 30 35 27 66 -2 30 -7 38
-23 38 -14 0 -21 -8 -25 -29 -6 -36 -20 -39 -31 -9 -6 15 -4 25 5 30 25 15 37
50 26 78 -12 31 -43 31 -48 0 -8 -50 -12 -49 -75 12 -86 84 -95 88 -182 76z
m142 -115 c79 -80 102 -131 103 -223 0 -57 -5 -81 -29 -130 -39 -82 -137 -199
-159 -190 -10 4 -40 11 -69 17 -50 10 -52 12 -58 50 -8 48 -54 103 -100 119
-28 11 -35 19 -40 50 -5 30 6 79 18 79 2 0 20 -9 42 -20 23 -12 59 -20 87 -20
39 0 54 6 83 32 77 67 95 155 50 244 -30 58 -29 54 -7 54 10 0 45 -28 79 -62z
m-127 0 c30 -61 30 -114 1 -161 -29 -47 -70 -63 -121 -48 -22 6 -44 20 -50 31
-32 60 18 194 84 220 45 18 60 11 86 -42z"/>
<path d="M5479 8043 c-38 -20 -55 -35 -57 -50 -4 -30 24 -30 73 -2 27 16 53
22 100 22 62 0 67 -2 110 -42 81 -75 121 -40 42 37 -71 70 -172 83 -268 35z"/>
<path d="M4903 8018 c-47 -16 -98 -61 -90 -81 9 -24 30 -21 73 8 62 42 128 30
177 -32 21 -26 52 -30 61 -8 8 21 -51 84 -99 106 -44 21 -74 22 -122 7z"/>
<path d="M5521 7881 c-7 -5 -11 -17 -9 -27 2 -13 22 -24 68 -38 58 -17 62 -20
40 -28 -16 -6 -33 -5 -48 1 -78 36 -157 -6 -234 -123 -100 -154 -105 -324 -14
-478 44 -73 87 -95 158 -78 79 19 193 8 257 -26 40 -21 57 -25 70 -17 28 18
18 37 -32 60 l-47 23 40 80 c42 83 50 133 27 165 -12 15 -10 27 16 88 24 58
28 81 25 128 -5 70 -47 143 -96 169 -18 10 -43 29 -56 43 -14 15 -49 33 -82
43 -33 9 -61 18 -64 20 -3 1 -12 -1 -19 -5z m13 -140 c3 -5 -1 -15 -10 -22
-25 -20 -62 -101 -69 -151 -13 -85 58 -188 140 -204 33 -6 98 -2 133 7 8 2 19
-4 25 -14 10 -14 4 -33 -32 -103 l-43 -85 -64 6 c-40 5 -88 2 -128 -6 -59 -11
-67 -11 -84 5 -31 27 -85 156 -90 211 -10 126 81 311 173 351 36 16 42 17 49
5z m194 -17 c57 -39 72 -142 33 -227 -36 -76 -105 -105 -175 -72 -69 33 -94
113 -60 193 17 41 68 100 99 112 32 14 79 11 103 -6z"/>
<path d="M6289 7422 c-29 -24 -20 -58 14 -47 55 17 62 13 62 -35 0 -35 4 -45
18 -48 27 -6 52 62 36 100 -6 16 -20 33 -30 38 -28 16 -75 12 -100 -8z"/>
<path d="M6378 6909 c-10 -5 -18 -15 -18 -21 0 -6 8 -20 18 -31 17 -19 16 -20
-43 -15 -79 7 -196 -7 -235 -27 -25 -13 -31 -21 -26 -38 4 -20 -3 -24 -72 -45
-69 -21 -84 -30 -139 -87 -64 -65 -78 -100 -46 -112 10 -4 23 2 35 18 18 21
26 23 93 20 55 -2 74 1 78 12 9 24 -6 35 -58 44 l-50 9 79 33 c68 28 88 32
145 29 60 -3 66 -1 66 17 0 14 -12 24 -45 36 l-45 17 60 12 c58 12 199 9 288
-6 32 -6 37 -4 37 12 0 10 -12 30 -27 46 -14 15 -24 30 -21 33 9 9 73 -17 110
-46 43 -34 78 -38 78 -10 0 23 -50 67 -105 92 -44 20 -130 24 -157 8z"/>
<path d="M8197 6333 c-19 -18 -4 -42 35 -58 58 -23 123 -76 107 -86 -7 -4 -21
-3 -32 2 -22 12 -47 5 -47 -14 0 -7 14 -26 31 -43 42 -39 76 -100 84 -149 l7
-40 -25 30 c-23 27 -27 28 -41 15 -14 -14 -13 -21 9 -75 13 -33 27 -90 31
-127 4 -45 11 -69 21 -72 25 -10 33 3 33 55 0 40 5 55 22 69 20 16 21 21 10
57 -7 22 -12 58 -12 79 0 22 -9 59 -20 83 -24 52 -24 51 -6 51 25 0 27 17 10
69 -18 56 -71 107 -146 141 -46 21 -61 24 -71 13z"/>
<path d="M3346 6789 c-29 -23 -56 -68 -56 -96 0 -11 -15 -24 -40 -35 -42 -17
-80 -67 -80 -105 0 -18 -8 -23 -37 -29 -52 -9 -91 -30 -125 -67 -59 -66 -20
-102 42 -39 42 45 86 59 145 48 42 -8 55 11 35 49 -24 46 42 120 87 97 34 -18
43 -4 37 52 -6 47 -4 55 17 74 37 35 76 29 121 -20 35 -38 40 -40 54 -26 14
14 14 18 0 46 -26 51 -62 72 -121 72 -38 0 -60 -6 -79 -21z"/>
<path d="M5450 4803 c-20 -8 -29 -23 -23 -40 3 -8 22 -13 54 -13 62 0 72 -16
52 -83 -11 -37 -22 -53 -49 -69 -25 -15 -34 -26 -32 -42 2 -14 9 -20 23 -19
30 4 62 -5 79 -23 21 -20 20 -74 -1 -89 -28 -21 -9 -45 36 -45 48 0 63 -20 54
-73 -4 -29 -2 -38 12 -43 47 -18 64 98 20 141 -13 14 -29 25 -35 25 -5 0 -10
14 -10 30 0 38 -23 84 -52 104 -21 15 -21 17 -6 50 22 45 32 100 24 131 -12
46 -93 78 -146 58z"/>
<path d="M6923 6100 c-52 -12 -123 -58 -123 -81 0 -31 25 -33 68 -4 72 48 145
43 196 -14 22 -25 54 -28 63 -6 7 20 -21 51 -72 80 -48 27 -89 35 -132 25z"/>
<path d="M6304 6064 c-44 -29 -89 -87 -79 -103 11 -19 44 -12 61 14 9 13 31
34 50 46 32 20 36 20 59 5 14 -9 32 -30 40 -46 16 -31 49 -41 58 -17 7 20 -9
53 -48 91 -44 44 -84 47 -141 10z"/>
<path d="M6943 5909 c-37 -11 -45 -21 -37 -44 5 -13 16 -15 53 -10 l46 6 -40
-15 c-75 -28 -145 -135 -145 -222 0 -19 -6 -34 -15 -38 -9 -3 -23 -22 -31 -41
-36 -88 51 -322 126 -336 8 -2 48 3 87 11 81 15 141 6 234 -32 80 -34 115 3
39 42 l-40 20 21 42 c34 67 48 115 59 206 14 107 1 171 -40 205 -15 12 -35 39
-45 60 -12 25 -43 57 -91 93 -79 60 -121 72 -181 53z m175 -119 c23 -16 44
-41 48 -54 10 -41 -32 -151 -72 -185 -62 -55 -109 -53 -174 5 -34 31 -40 43
-40 76 0 44 27 102 63 136 20 19 85 45 128 51 3 1 25 -12 47 -29z m122 -149
c26 -50 -4 -246 -51 -330 l-21 -38 -88 5 c-55 3 -100 0 -124 -8 -32 -10 -40
-10 -57 6 -52 47 -99 223 -69 259 11 13 18 10 52 -20 46 -42 76 -55 128 -55
83 0 148 51 181 141 23 63 32 70 49 40z"/>
<path d="M6287 5903 c-4 -3 -7 -14 -7 -24 0 -18 19 -29 53 -29 18 0 16 -4 -16
-34 -21 -19 -40 -47 -43 -65 -5 -25 -10 -30 -28 -25 -27 6 -48 -15 -77 -81
-32 -71 -32 -201 -1 -269 27 -59 27 -56 -1 -56 -34 0 -62 -23 -54 -45 6 -13
14 -16 41 -11 l34 6 -24 -46 c-119 -234 246 -477 429 -286 18 19 25 35 21 45
-9 25 -32 21 -70 -12 -45 -40 -94 -52 -155 -41 -66 13 -98 31 -142 79 -68 76
-70 165 -3 230 40 39 95 49 174 32 70 -15 99 -1 113 53 6 23 18 58 25 79 19
50 18 116 -2 138 -14 16 -14 19 1 42 22 34 30 113 16 164 -19 71 -85 133 -143
133 -13 0 -32 7 -42 15 -20 15 -87 21 -99 8z m168 -89 c42 -19 65 -67 65 -132
0 -69 -32 -116 -82 -120 -68 -6 -118 53 -118 139 0 38 5 47 47 86 26 23 49 43
51 43 2 0 19 -7 37 -16z m-185 -165 c0 -53 75 -133 135 -145 19 -3 49 -1 67 5
52 18 61 -14 28 -99 -11 -28 -20 -59 -20 -68 0 -16 -12 -18 -115 -18 l-115 1
-21 50 c-39 87 -38 209 1 273 21 35 40 35 40 1z"/>
<path d="M8008 5594 c-37 -19 -53 -51 -37 -70 17 -20 34 -17 52 9 31 46 30 3
-2 -56 -35 -64 -38 -99 -9 -105 11 -2 28 20 57 77 23 45 41 89 41 100 0 20
-44 61 -64 61 -6 -1 -23 -7 -38 -16z"/>
<path d="M6945 4936 c-17 -7 -36 -21 -44 -30 -12 -15 -12 -19 2 -33 14 -15 18
-15 42 1 44 29 39 12 -14 -49 -28 -32 -51 -61 -51 -65 0 -14 -156 -99 -203
-111 -32 -8 -81 -10 -139 -5 -99 7 -155 28 -259 97 -51 34 -58 37 -75 23 -18
-14 -17 -16 21 -50 22 -20 70 -50 107 -67 65 -31 67 -34 98 -104 67 -152 123
-196 251 -197 64 0 83 4 122 27 76 45 101 104 115 273 4 45 13 89 22 101 8 11
35 45 60 77 l45 56 22 -26 c38 -48 73 -7 37 44 -33 48 -100 64 -159 38z m-75
-288 c0 -67 -8 -78 -55 -78 -28 0 -54 -8 -78 -25 -35 -23 -38 -23 -73 -9 -41
17 -83 8 -120 -27 -24 -23 -34 -16 -59 44 l-15 37 105 0 c116 0 175 15 240 61
22 15 43 28 48 29 4 0 7 -15 7 -32z m-30 -140 c0 -28 -42 -80 -75 -94 -44 -18
-126 -18 -170 0 -42 18 -43 28 -9 55 36 28 68 28 59 1 -8 -26 11 -51 33 -43 9
4 28 19 42 34 42 47 120 77 120 47z"/>
<path d="M6763 4304 c-14 -22 -22 -25 -52 -21 -20 3 -44 8 -53 12 -11 4 -20 0
-27 -14 -10 -17 -8 -23 11 -35 13 -8 42 -18 65 -22 41 -6 45 -4 84 35 34 34
39 44 29 56 -18 22 -37 18 -57 -11z"/>
<path d="M4255 6017 c-52 -17 -125 -66 -125 -84 0 -28 33 -26 90 5 93 51 190
40 224 -27 19 -35 40 -45 57 -25 18 22 -15 79 -62 111 -45 30 -127 38 -184 20z"/>
<path d="M3480 5970 c-19 -10 -50 -34 -69 -54 -29 -30 -32 -38 -21 -51 18 -21
23 -20 75 25 63 54 113 56 172 5 45 -38 70 -44 80 -19 4 11 -7 28 -33 51 -74
65 -138 78 -204 43z"/>
<path d="M4268 5834 c-12 -11 -10 -44 2 -44 6 0 10 -4 10 -10 0 -5 -6 -10 -14
-10 -8 0 -36 -20 -64 -45 -27 -25 -53 -45 -56 -45 -4 0 -17 12 -30 27 -13 15
-28 23 -34 19 -20 -12 -13 -49 14 -77 14 -15 23 -32 20 -38 -11 -18 -45 -12
-56 9 -12 22 -46 27 -53 8 -7 -20 19 -63 46 -75 24 -11 25 -14 20 -90 -5 -73
-4 -80 20 -105 21 -23 25 -34 20 -63 -7 -44 19 -115 58 -160 l29 -33 -35 -22
c-23 -15 -34 -28 -31 -37 3 -8 6 -17 6 -19 0 -14 42 1 85 29 28 19 71 42 98
52 l48 18 40 -32 c47 -38 92 -54 108 -38 19 19 12 36 -23 51 -18 8 -36 18 -40
24 -3 6 11 39 33 74 68 112 86 177 86 308 0 72 -5 130 -14 154 -19 54 -82 120
-139 144 -53 23 -143 38 -154 26z m163 -93 c77 -48 111 -159 90 -297 -11 -77
-60 -197 -99 -244 l-20 -25 5 66 c6 76 -14 128 -69 174 -27 23 -39 26 -79 23
-30 -3 -59 -14 -83 -33 -31 -24 -39 -26 -47 -14 -12 19 -11 38 2 100 25 114
86 195 182 239 26 12 50 26 53 31 8 14 17 11 65 -20z m-113 -386 c38 -43 47
-86 30 -144 -12 -40 -18 -46 -56 -59 -42 -14 -44 -13 -69 9 -57 54 -73 148
-30 186 57 52 85 54 125 8z"/>
<path d="M3516 5771 c-8 -12 4 -41 16 -41 6 0 -1 -9 -16 -21 -26 -21 -46 -19
-46 5 0 8 -7 19 -15 26 -12 10 -18 10 -30 0 -20 -17 -19 -42 4 -72 20 -24 20
-25 -7 -79 -25 -49 -27 -64 -26 -164 0 -129 9 -153 83 -242 28 -34 51 -66 51
-71 0 -6 -7 -23 -15 -38 -33 -63 -10 -141 57 -199 84 -71 210 -86 324 -37 51
21 64 31 62 47 -4 29 -35 30 -82 4 -56 -33 -162 -33 -222 -2 -46 25 -91 73
-100 108 -8 31 31 105 54 105 10 0 27 7 38 15 10 8 37 15 60 15 57 0 123 37
146 82 19 36 16 66 -12 163 -2 6 4 26 13 46 15 35 15 41 -4 109 -35 129 -87
209 -150 234 -43 17 -174 22 -183 7z m186 -70 c32 -26 72 -102 93 -178 20 -72
16 -99 -14 -83 -30 15 -89 12 -122 -7 -17 -10 -41 -40 -56 -71 -21 -43 -24
-61 -19 -99 3 -26 13 -58 22 -71 13 -20 14 -26 3 -33 -22 -14 -24 -12 -75 44
-69 76 -84 115 -84 222 0 117 23 170 106 243 66 58 103 66 146 33z m53 -313
c18 -8 29 -25 40 -61 20 -69 19 -84 -10 -111 -47 -44 -106 -42 -130 5 -30 57
-9 150 38 169 30 12 32 12 62 -2z"/>
<path d="M5190 5657 c-38 -19 -54 -56 -41 -91 9 -22 16 -27 35 -24 19 4 22 1
19 -13 -3 -10 -2 -30 1 -44 5 -20 12 -26 29 -23 18 2 23 11 28 53 3 28 9 66
13 86 5 25 4 38 -6 46 -24 19 -53 23 -78 10z m26 -74 c-10 -10 -19 5 -10 18 6
11 8 11 12 0 2 -7 1 -15 -2 -18z"/>
<path d="M4324 4841 c-42 -26 -50 -40 -31 -59 14 -14 18 -13 42 2 39 25 41 13
10 -41 -57 -96 -151 -172 -263 -213 -54 -20 -75 -22 -159 -18 -147 8 -254 58
-373 174 -41 39 -48 43 -64 31 -15 -11 -17 -17 -7 -35 18 -34 137 -128 208
-164 34 -18 63 -40 63 -48 0 -8 31 -55 68 -105 83 -111 123 -135 224 -135 84
0 127 17 162 63 33 43 90 220 82 258 -4 22 3 36 39 75 25 27 57 72 72 101 31
58 38 63 46 32 8 -31 41 -21 45 14 2 20 -5 36 -27 57 -36 36 -89 40 -137 11z
m-104 -367 c-11 -32 -15 -35 -40 -29 -28 6 -89 -13 -118 -38 -8 -6 -44 -12
-81 -12 -36 -1 -75 -5 -86 -9 -17 -6 -27 1 -55 40 -23 32 -28 45 -17 41 10 -4
46 -9 81 -13 84 -9 177 10 258 50 69 35 78 31 58 -30z m-30 -89 c0 -14 -30
-62 -50 -80 -30 -27 -153 -29 -193 -2 -34 22 -34 35 -2 43 27 7 76 -2 74 -14
-7 -42 34 -44 56 -3 19 38 52 61 87 61 16 0 28 -2 28 -5z"/>
<path d="M4219 4213 c-31 -48 -66 -61 -122 -44 -63 19 -91 19 -95 -1 -5 -26
72 -62 134 -62 60 0 113 33 134 83 26 64 -13 83 -51 24z"/>
<path d="M11194 5610 c-60 -12 -138 -52 -142 -73 -6 -29 24 -30 92 -3 35 14
79 26 98 26 l33 0 -32 -20 c-18 -11 -33 -27 -33 -35 0 -23 29 -30 57 -13 22
13 30 13 81 -4 70 -22 103 -39 97 -48 -3 -4 -15 -5 -28 -3 -31 6 -55 -21 -37
-42 7 -8 22 -15 34 -15 24 0 98 -40 103 -56 2 -6 -8 -9 -25 -6 -19 2 -31 -1
-35 -10 -10 -27 11 -41 67 -46 45 -4 57 -1 62 12 9 23 -12 69 -47 102 -20 19
-27 34 -23 46 3 11 -1 29 -10 42 -16 26 -108 76 -138 76 -10 0 -22 10 -27 23
-5 13 -15 28 -22 34 -21 16 -79 22 -125 13z"/>
<path d="M5906 5669 c-33 -26 -34 -62 -2 -94 31 -31 75 -43 87 -24 14 22 11
27 -21 44 -37 19 -38 33 -3 37 32 4 39 20 18 42 -22 22 -47 20 -79 -5z"/>
<path d="M4511 3520 c-79 -19 -115 -70 -137 -196 -19 -106 -10 -155 39 -211
83 -95 227 -98 307 -7 62 71 110 207 110 312 0 78 -12 87 -125 101 -101 12
-145 13 -194 1z m214 -58 l50 -7 -2 -48 c-2 -76 -3 -77 -65 -60 -36 10 -87 13
-160 10 -104 -3 -108 -3 -108 17 1 30 24 67 51 82 26 14 147 17 234 6z m-12
-173 c33 -9 37 -13 31 -32 -33 -107 -116 -176 -194 -162 -83 16 -130 70 -130
149 0 43 1 45 33 50 17 3 43 8 57 10 35 6 158 -3 203 -15z"/>
<path d="M3131 5277 c-10 -30 -9 -41 10 -76 13 -25 28 -41 39 -41 25 0 31 23
14 55 -7 15 -13 41 -11 58 2 26 -2 33 -20 35 -16 2 -24 -4 -32 -31z"/>
<path d="M10088 5024 c-84 -43 -54 -82 34 -44 67 29 116 23 170 -20 35 -29 42
-31 55 -17 13 13 13 17 -1 39 -45 69 -168 89 -258 42z"/>
<path d="M10782 4973 c-45 -16 -62 -37 -44 -55 7 -7 32 -5 80 8 81 21 110 13
140 -38 26 -45 62 -48 62 -6 0 11 -20 40 -44 64 -41 41 -47 44 -97 43 -30 0
-73 -7 -97 -16z"/>
<path d="M10032 4868 c-7 -7 -12 -29 -12 -50 0 -23 -9 -51 -25 -74 -13 -20
-30 -51 -37 -70 -13 -37 -23 -41 -51 -19 -11 7 -25 11 -33 8 -27 -10 -14 -42
31 -73 28 -19 45 -38 45 -51 0 -11 5 -29 11 -40 8 -16 6 -23 -13 -39 -35 -28
-31 -113 10 -209 17 -41 28 -77 24 -80 -5 -4 -25 -16 -45 -29 -38 -24 -49 -55
-23 -65 8 -3 36 9 63 26 44 30 54 32 133 32 78 0 90 -3 143 -33 47 -27 61 -31
73 -21 8 7 13 18 10 24 -2 7 16 40 40 75 66 95 86 157 92 281 7 165 -36 279
-136 354 -60 47 -96 52 -178 26 -81 -25 -88 -26 -80 -5 6 16 -9 44 -23 44 -4
0 -12 -5 -19 -12z m254 -87 c39 -24 76 -72 106 -137 19 -41 23 -66 22 -154 0
-120 -17 -175 -84 -278 l-39 -61 -53 21 c-29 11 -84 22 -123 24 l-69 3 -28 56
c-30 59 -44 128 -34 168 l6 24 47 -23 c74 -38 127 -29 185 33 77 80 76 239 -1
307 -11 11 -21 23 -21 28 0 15 55 8 86 -11z m-66 -121 c12 -43 12 -66 -3 -108
-33 -90 -116 -120 -179 -63 -27 24 -32 36 -36 88 -3 46 0 68 16 99 24 46 68
90 97 96 26 6 90 -64 105 -112z"/>
<path d="M10787 4799 c-121 -28 -182 -125 -162 -256 5 -34 16 -56 41 -81 33
-33 37 -34 96 -30 56 4 64 8 99 45 61 65 75 165 34 243 -32 62 27 18 72 -53
64 -102 58 -269 -16 -416 l-30 -59 -47 24 c-56 28 -84 30 -148 8 -76 -26 -91
-14 -106 88 -10 63 -10 90 -1 106 6 11 11 30 11 42 0 16 -5 21 -22 18 -33 -5
-49 -44 -46 -118 3 -53 0 -68 -16 -81 -28 -23 -14 -51 45 -88 53 -35 45 -35
192 -15 41 5 54 2 87 -20 39 -26 40 -27 40 -87 0 -35 -7 -75 -16 -94 -29 -61
-135 -118 -221 -118 -59 0 -92 17 -136 69 -33 39 -42 41 -56 15 -15 -27 54
-104 114 -127 129 -49 331 49 365 178 7 23 10 67 8 96 l-5 53 38 -6 c53 -9 81
1 77 28 -2 18 -11 23 -45 25 -24 2 -43 7 -43 11 0 5 13 37 29 73 18 39 34 97
41 149 14 104 18 119 34 119 23 0 65 40 59 55 -6 17 -49 20 -58 5 -3 -5 -14
-10 -23 -10 -11 0 -6 7 15 21 39 25 51 55 30 76 -13 13 -18 12 -41 -13 -19
-21 -29 -25 -37 -17 -8 8 -3 15 20 27 19 10 31 24 31 37 0 28 -25 34 -56 14
-26 -17 -27 -16 -63 19 -53 52 -103 64 -184 45z m53 -91 c37 -82 17 -183 -41
-213 -40 -21 -66 -19 -94 10 -21 20 -25 34 -25 80 0 82 30 130 95 153 44 15
44 15 65 -30z"/>
<path d="M9760 3894 c-41 -35 -63 -77 -47 -93 18 -18 32 -13 57 21 21 29 24
30 30 12 4 -10 5 -95 2 -189 -3 -112 -1 -184 7 -212 30 -109 153 -172 255
-129 44 19 99 68 132 120 l27 43 81 6 c92 7 181 31 189 50 3 8 2 19 -3 26 -6
10 -22 9 -78 -4 -98 -24 -210 -18 -282 16 -121 57 -257 191 -271 267 l-6 32
41 -2 c32 -2 41 1 44 15 2 12 -7 22 -32 32 -56 23 -109 19 -146 -11z m328
-370 c45 -22 81 -41 81 -44 0 -3 -8 -15 -18 -27 -18 -22 -20 -22 -51 -7 -17 9
-42 14 -56 11 -21 -4 -30 3 -56 40 -30 44 -77 73 -118 73 -18 0 -20 6 -20 54
0 88 4 88 83 10 55 -54 94 -81 155 -110z m-156 -45 c52 -69 66 -79 107 -79 22
0 42 -4 45 -9 11 -17 -43 -41 -93 -41 -42 0 -56 5 -85 30 -20 18 -37 44 -41
63 -4 18 -9 40 -11 50 -4 13 1 17 25 17 21 0 36 -8 53 -31z"/>
<path d="M1485 4788 c-42 -32 -72 -68 -86 -101 -10 -24 -9 -31 4 -44 13 -13
19 -14 31 -3 9 7 16 18 16 24 0 21 65 84 93 91 18 5 45 -1 82 -16 52 -21 56
-22 72 -6 13 13 14 20 5 29 -19 19 -84 40 -137 45 -42 4 -55 1 -80 -19z"/>
<path d="M1610 4623 c-33 -27 -39 -60 -14 -70 8 -3 25 4 38 16 33 31 42 25 12
-9 -29 -35 -56 -116 -56 -167 0 -88 98 -173 200 -173 51 0 88 19 128 65 l32
35 6 -25 c7 -30 1 -211 -8 -220 -3 -4 -34 -13 -67 -21 -34 -7 -80 -23 -101
-34 -47 -24 -57 -20 -112 37 -68 70 -95 152 -86 258 2 24 -1 30 -17 30 -49 0
-56 -101 -15 -210 17 -44 40 -77 86 -123 60 -60 62 -63 51 -92 -10 -25 -9 -33
3 -40 23 -15 29 -12 49 23 11 17 28 40 37 50 28 27 138 57 213 57 74 0 95 9
89 36 -2 14 -13 20 -39 22 l-35 3 7 52 c11 78 0 198 -20 227 -10 14 -20 42
-24 64 -5 34 -3 41 23 63 33 27 39 60 14 70 -8 3 -25 -4 -38 -16 -21 -20 -24
-20 -36 -5 -9 10 -11 20 -4 28 37 52 45 68 40 81 -8 23 -34 18 -61 -12 -20
-24 -26 -26 -42 -15 -34 23 -58 29 -141 35 -78 5 -84 4 -112 -20z m218 -59
c36 -25 82 -114 82 -158 0 -67 -63 -136 -126 -136 -35 0 -103 42 -124 76 -19
30 -20 39 -10 86 12 59 16 67 57 114 32 37 83 45 121 18z"/>
<path d="M965 4611 c-41 -25 -99 -123 -90 -151 8 -27 48 -23 54 4 6 33 50 96
75 107 19 9 33 7 70 -10 51 -22 76 -19 76 11 0 13 -14 25 -42 38 -54 25 -105
25 -143 1z"/>
<path d="M1034 4431 c-46 -21 -60 -44 -38 -62 12 -10 21 -9 45 5 17 10 32 16
35 14 2 -3 -3 -21 -11 -41 -17 -42 -39 -47 -64 -15 -21 25 -51 19 -51 -10 0
-11 9 -31 21 -46 21 -27 12 -34 -21 -16 -14 7 -23 6 -34 -6 -20 -20 -13 -32
30 -50 19 -8 34 -19 34 -24 0 -6 -8 -5 -19 2 -15 9 -23 9 -35 -1 -9 -8 -16
-19 -16 -26 0 -16 30 -42 55 -47 15 -2 21 -14 26 -48 14 -94 68 -177 153 -237
35 -24 59 -49 66 -69 29 -85 157 -142 257 -115 56 15 95 49 133 117 28 51 30
58 16 72 -19 19 -39 5 -66 -47 -27 -53 -63 -82 -108 -88 -88 -12 -160 25 -182
93 -11 32 -10 38 10 59 12 13 43 28 68 35 66 16 90 35 113 87 17 40 18 48 5
62 -7 9 -17 41 -21 70 -5 40 -15 62 -35 83 -19 18 -30 43 -35 75 -10 68 -49
138 -92 168 -33 22 -48 25 -118 25 -56 0 -92 -6 -121 -19z m204 -51 c39 -24
71 -88 72 -142 0 -95 -140 -106 -184 -14 -21 45 -20 78 4 132 17 36 25 44 48
44 15 0 42 -9 60 -20z m-122 -231 c60 -55 131 -60 198 -14 l36 24 15 -22 c8
-12 15 -32 15 -45 0 -13 5 -43 11 -68 10 -38 9 -47 -5 -63 -10 -11 -34 -22
-54 -26 -49 -9 -86 -29 -111 -61 l-20 -26 -30 21 c-90 64 -137 170 -133 296 3
82 11 94 32 49 10 -22 30 -51 46 -65z"/>
<path d="M1954 3781 c-35 -22 -74 -67 -74 -88 0 -31 32 -25 71 13 21 21 41 36
43 33 2 -2 -11 -42 -29 -88 -34 -86 -85 -151 -151 -192 -49 -30 -165 -69 -206
-69 -47 0 -153 22 -248 53 -42 13 -81 22 -88 19 -23 -7 -13 -42 16 -53 56 -21
196 -59 253 -68 50 -8 68 -17 110 -55 109 -98 248 -95 323 7 19 25 21 44 22
160 1 111 5 141 25 192 28 75 25 72 49 50 16 -14 22 -15 35 -5 8 7 15 16 15
21 0 22 -95 89 -127 89 -4 0 -22 -9 -39 -19z m-4 -311 c0 -25 -6 -32 -37 -45
-21 -9 -52 -29 -68 -45 -17 -16 -52 -41 -80 -54 -46 -24 -50 -24 -67 -9 -26
23 -23 28 25 43 68 20 132 56 174 98 47 48 53 50 53 12z m-10 -118 c0 -10 -13
-31 -30 -47 -23 -22 -40 -29 -82 -32 l-53 -3 40 19 c22 10 53 33 69 50 33 35
56 40 56 13z"/>
<path d="M1989 3199 c-20 -25 -33 -32 -74 -36 -52 -6 -67 -16 -58 -40 8 -21
102 -17 141 7 36 22 58 60 49 84 -10 25 -32 19 -58 -15z"/>
<path d="M11206 4229 c-14 -11 -26 -27 -26 -35 0 -21 29 -29 52 -15 28 18 33
7 12 -27 -18 -32 -14 -62 10 -62 42 0 81 128 46 150 -25 16 -66 11 -94 -11z"/>
<path d="M8600 2870 c-77 -14 -174 -53 -178 -73 -6 -29 27 -31 92 -8 37 14 95
25 148 28 111 7 180 -9 388 -89 85 -33 188 -68 229 -79 88 -23 186 -25 194 -6
9 25 -7 33 -93 45 -96 12 -141 26 -355 107 -201 77 -307 95 -425 75z"/>
<path d="M8510 2634 c-66 -24 -90 -39 -90 -55 0 -29 15 -30 86 -7 63 20 72 21
167 9 107 -13 218 -48 401 -124 156 -65 292 -77 284 -24 -3 20 -10 22 -83 28
-68 4 -103 14 -232 67 -210 85 -276 103 -408 108 -60 2 -117 1 -125 -2z"/>
<path d="M8631 2436 c-24 -28 3 -46 71 -46 44 0 82 -9 151 -36 123 -48 154
-55 168 -38 19 23 6 34 -61 58 -36 13 -92 33 -125 46 -80 30 -186 38 -204 16z"/>
<path d="M8180 2334 c-36 -8 -85 -24 -110 -37 -42 -20 -49 -31 -105 -142 -33
-66 -75 -141 -93 -167 -18 -26 -57 -98 -87 -160 -30 -62 -64 -127 -76 -145
-24 -38 -36 -128 -17 -135 7 -3 59 13 116 34 137 52 283 74 390 59 124 -16
178 -39 322 -136 157 -106 235 -137 275 -111 29 19 37 34 71 128 15 40 67 165
116 278 96 220 128 306 128 343 0 22 -6 24 -92 36 -62 8 -156 33 -283 76 -280
94 -404 112 -555 79z m315 -64 c44 -10 152 -44 240 -74 88 -30 194 -60 235
-67 41 -7 76 -13 78 -14 5 -4 -44 -127 -126 -315 -44 -102 -93 -219 -107 -260
-37 -103 -42 -108 -101 -85 -26 10 -102 55 -170 101 -133 89 -194 117 -300
135 -126 22 -317 -2 -458 -57 -21 -8 -41 -12 -44 -10 -3 3 11 29 30 59 19 29
51 89 70 134 20 44 51 102 69 129 19 26 61 102 94 168 43 87 67 124 86 133 95
46 271 56 404 23z"/>
<path d="M8134 2229 c-33 -17 -264 -385 -264 -420 0 -9 -10 -29 -21 -43 -19
-24 -20 -29 -7 -42 13 -14 21 -12 70 15 65 34 148 61 193 61 43 0 140 -26 200
-54 28 -13 99 -58 159 -101 106 -77 207 -128 231 -118 15 5 215 395 246 478
24 65 16 85 -35 85 -47 0 -184 35 -356 92 -145 47 -163 51 -275 54 -75 3 -128
0 -141 -7z m408 -104 c95 -31 212 -64 260 -73 49 -9 88 -21 88 -27 0 -11 -109
-233 -165 -335 -19 -36 -35 -71 -35 -78 0 -42 -66 -14 -205 86 -156 111 -258
152 -379 152 -42 -1 -93 -8 -123 -19 -29 -10 -53 -17 -53 -15 0 5 163 273 194
321 33 49 44 53 158 47 70 -3 119 -14 260 -59z"/>
<path d="M7130 2343 c-20 -8 -29 -23 -23 -39 3 -8 25 -12 66 -11 49 2 80 -5
146 -31 86 -34 194 -51 246 -38 20 5 26 12 23 29 -3 19 -8 22 -43 19 -58 -3
-137 14 -227 48 -74 29 -149 38 -188 23z"/>
<path d="M6482 2273 c-45 -16 -62 -37 -44 -55 7 -7 30 -5 76 7 123 33 230 14
457 -84 156 -67 225 -89 322 -101 106 -14 171 -3 175 28 4 25 7 24 -98 22 -99
-1 -195 24 -370 99 -191 83 -262 101 -380 100 -58 0 -112 -7 -138 -16z"/>
<path d="M6278 2108 c-52 -16 -68 -25 -68 -40 0 -29 27 -33 89 -13 139 46 273
14 562 -134 264 -134 374 -169 374 -117 0 14 -19 24 -87 47 -48 15 -165 69
-260 118 -218 113 -331 152 -453 157 -72 3 -104 0 -157 -18z"/>
<path d="M6156 1930 c-66 -26 -80 -40 -63 -63 12 -17 15 -17 57 2 64 28 134
35 225 21 123 -18 232 -59 445 -167 198 -101 302 -138 371 -131 26 2 34 8 34
23 0 16 -10 22 -60 31 -94 17 -126 30 -360 145 -254 126 -328 149 -490 155
-93 4 -118 1 -159 -16z"/>
<path d="M5983 1558 c-61 -20 -54 -64 10 -54 l40 7 -49 -45 c-42 -38 -47 -47
-37 -63 6 -10 17 -17 23 -15 28 7 239 -32 299 -54 35 -13 142 -65 238 -115
122 -64 185 -91 209 -91 23 0 58 14 104 42 70 42 71 42 116 30 34 -10 48 -10
57 -1 16 16 -2 43 -34 52 -13 3 -152 61 -309 129 -157 67 -310 131 -340 142
-127 44 -256 58 -327 36z m243 -68 c40 -11 191 -71 338 -134 l266 -114 -48
-31 c-27 -17 -57 -31 -67 -31 -10 0 -89 38 -174 84 -188 100 -270 134 -376
153 -138 25 -133 23 -111 37 10 6 32 21 50 33 39 27 37 27 122 3z"/>
<path d="M4739 8989 c-231 -19 -378 -78 -501 -201 -80 -79 -89 -96 -62 -119
13 -11 25 -2 85 64 140 153 320 207 694 210 77 0 160 -5 185 -11 71 -18 298
-50 375 -54 66 -3 70 -2 73 19 4 27 -2 28 -148 44 -57 6 -165 21 -240 35 -143
25 -270 29 -461 13z"/>
<path d="M4760 8800 c-8 -5 -28 -10 -43 -10 -30 0 -47 -24 -28 -43 15 -15 14
-27 -1 -27 -27 0 -136 -59 -155 -84 -12 -14 -26 -26 -33 -26 -8 0 -11 -9 -8
-24 4 -19 -4 -32 -40 -62 -51 -43 -102 -118 -102 -150 0 -13 -4 -26 -10 -29
-15 -9 -12 -42 5 -49 15 -5 49 20 56 43 2 6 38 19 79 29 61 15 75 22 75 38 0
23 -50 31 -96 15 -39 -13 -37 -2 9 41 61 59 133 98 181 98 78 0 60 59 -18 61
l-36 1 50 23 c28 13 68 26 90 30 22 4 44 10 50 13 5 3 24 5 42 3 27 -2 33 1
33 18 0 12 -11 27 -27 35 -37 20 -15 20 63 -1 56 -15 66 -15 74 -3 12 20 4 29
-44 51 -44 20 -141 25 -166 9z"/>
<path d="M8163 8790 c-39 -23 -67 -64 -59 -85 9 -24 38 -17 66 16 45 54 106
36 131 -38 9 -27 8 -40 -2 -59 -19 -37 0 -51 49 -35 21 7 47 12 57 10 28 -6
59 -56 60 -96 0 -45 14 -51 49 -18 15 14 30 25 33 25 3 0 18 -11 35 -25 35
-29 41 -30 59 -9 20 25 -47 84 -96 84 -28 0 -37 5 -50 30 -19 37 -70 70 -107
70 -19 0 -28 5 -28 16 0 32 -34 86 -69 110 -43 29 -85 31 -128 4z"/>
<path d="M7175 8751 c-62 -38 -80 -68 -79 -127 1 -44 -1 -54 -15 -54 -51 0
-115 -80 -109 -138 1 -15 -6 -43 -16 -62 -14 -28 -15 -41 -7 -63 15 -39 44
-32 51 11 3 22 13 37 29 45 31 15 36 31 16 50 -55 56 51 138 120 93 21 -14 29
-15 41 -5 20 16 18 36 -5 49 -59 31 -70 94 -24 136 24 22 34 25 78 20 27 -3
63 -6 80 -8 22 -2 30 2 33 15 3 12 -9 23 -40 37 -54 25 -114 25 -153 1z"/>
<path d="M6075 8572 c-38 -13 -50 -22 -50 -37 0 -22 17 -24 87 -10 41 8 101
-10 95 -29 -2 -6 -19 -12 -38 -14 -65 -7 -61 -47 6 -54 30 -4 60 -18 95 -43
49 -36 62 -58 22 -36 -16 9 -24 7 -36 -5 -15 -14 -12 -21 34 -71 27 -30 50
-58 50 -63 0 -4 -16 -3 -36 3 -28 9 -37 8 -44 -3 -13 -20 -1 -38 33 -50 17 -5
41 -20 54 -31 30 -29 50 -18 58 32 6 36 3 47 -24 86 -29 41 -31 47 -17 62 30
33 19 59 -43 106 -47 37 -57 50 -54 69 14 71 -96 121 -192 88z"/>
<path d="M6548 8164 c-18 -17 -7 -44 20 -50 72 -15 142 -53 142 -75 0 -6 -21
-9 -47 -7 -42 3 -48 0 -48 -16 0 -11 13 -26 30 -36 31 -17 68 -74 80 -122 6
-24 4 -28 -13 -28 -11 0 -25 7 -32 15 -7 8 -19 15 -27 15 -29 0 -24 -32 16
-91 39 -58 61 -113 61 -153 0 -18 -3 -17 -28 7 -32 31 -57 35 -66 10 -9 -23
97 -123 130 -123 23 0 24 3 24 63 -1 34 -9 86 -19 115 -17 50 -17 52 0 52 10
0 20 4 23 9 10 15 -16 135 -39 183 l-22 48 22 -6 c13 -3 27 1 35 11 11 13 10
18 -4 33 -9 10 -16 23 -16 28 0 15 -71 80 -106 98 -38 19 -106 31 -116 20z"/>
<path d="M9143 7070 c-56 -34 -30 -80 26 -48 14 9 32 13 39 11 20 -8 14 -50
-14 -82 -30 -36 -26 -64 8 -59 20 3 23 -2 26 -35 3 -30 -2 -44 -22 -64 -14
-14 -26 -36 -26 -48 0 -33 -24 -48 -62 -41 -65 13 -73 12 -76 -10 -4 -30 57
-58 107 -50 42 6 81 46 81 82 0 13 7 27 15 31 21 7 45 55 45 88 0 14 -7 41
-14 60 -12 27 -12 42 -4 65 12 37 4 74 -22 100 -25 25 -66 25 -107 0z"/>
<path d="M9000 6540 c-25 -16 -6 -45 34 -51 40 -7 76 -38 76 -66 0 -23 -20
-56 -46 -79 -24 -19 -24 -22 -13 -72 11 -47 11 -54 -7 -73 -18 -22 -171 -99
-193 -99 -7 0 -23 7 -36 16 -27 18 -55 13 -55 -9 0 -25 49 -61 83 -61 45 0
213 81 243 118 21 24 25 38 23 81 -2 41 2 59 21 85 15 21 25 52 28 85 4 46 1
56 -24 84 -30 32 -109 56 -134 41z"/>
</g>
</svg>
